<svg xmlns="http://www.w3.org/2000/svg" width="32" height="32" viewBox="0 0 32 32" fill="none">
  <path fill-rule="evenodd" clip-rule="evenodd" d="M10.1457 10.1464C9.95045 10.3417 9.95045 10.6583 10.1457 10.8536L15.0955 15.8033L10.1457 20.7531C9.95046 20.9483 9.95046 21.2649 10.1457 21.4602C10.341 21.6554 10.6576 21.6554 10.8528 21.4602L15.8026 16.5104L20.7523 21.4602C20.9476 21.6554 21.2642 21.6554 21.4594 21.4602C21.6547 21.2649 21.6547 20.9483 21.4594 20.753L16.5097 15.8033L21.4594 10.8536C21.6547 10.6583 21.6547 10.3417 21.4594 10.1465C21.2642 9.9512 20.9476 9.9512 20.7523 10.1465L15.8026 15.0962L10.8528 10.1464C10.6576 9.95118 10.341 9.95118 10.1457 10.1464Z" fill="#5C2D8B"/>
</svg>