<svg xmlns="http://www.w3.org/2000/svg" width="33" height="32" viewBox="0 0 33 32" fill="none">
  <path fill-rule="evenodd" clip-rule="evenodd" d="M18.0882 8H14.9118C14.2945 8 13.7941 8.50039 13.7941 9.11765L19.2059 9.11765C19.2059 8.50039 18.7055 8 18.0882 8ZM14.9118 7C13.7422 7 12.7941 7.9481 12.7941 9.11765L10.6176 9.11765H9.61765V9.17647H8C7.72386 9.17647 7.5 9.40033 7.5 9.67647C7.5 9.95261 7.72386 10.1765 8 10.1765H9.61765V22.8824C9.61765 24.0519 10.5658 25 11.7353 25H21.2647C22.4342 25 23.3824 24.0519 23.3824 22.8824V10.1765H25C25.2761 10.1765 25.5 9.95261 25.5 9.67647C25.5 9.40033 25.2761 9.17647 25 9.17647H23.3824V9.11765H22.3824L20.2059 9.11765C20.2059 7.9481 19.2578 7 18.0882 7H14.9118ZM19.2059 10.1765H20.2059H22.3824V22.8824C22.3824 23.4996 21.882 24 21.2647 24H11.7353C11.118 24 10.6176 23.4996 10.6176 22.8824V10.1765H12.7941H13.7941H19.2059ZM13.7941 12.7941C13.7941 12.518 13.5703 12.2941 13.2941 12.2941C13.018 12.2941 12.7941 12.518 12.7941 12.7941V21.3235C12.7941 21.5997 13.018 21.8235 13.2941 21.8235C13.5703 21.8235 13.7941 21.5997 13.7941 21.3235V12.7941ZM16.5 12.2941C16.7924 12.2941 17.0294 12.5311 17.0294 12.8235V21.2941C17.0294 21.5865 16.7924 21.8235 16.5 21.8235C16.2076 21.8235 15.9706 21.5865 15.9706 21.2941V12.8235C15.9706 12.5311 16.2076 12.2941 16.5 12.2941ZM20.1471 12.7941C20.1471 12.518 19.9232 12.2941 19.6471 12.2941C19.3709 12.2941 19.1471 12.518 19.1471 12.7941V21.3235C19.1471 21.5997 19.3709 21.8235 19.6471 21.8235C19.9232 21.8235 20.1471 21.5997 20.1471 21.3235V12.7941Z" fill="#5C2D8B"/>
</svg>