<svg xmlns="http://www.w3.org/2000/svg" width="32" height="32" viewBox="0 0 32 32" fill="none">
  <g clip-path="url(#clip0_968_1058)">
    <circle cx="16" cy="16" r="16" fill="url(#paint0_linear_968_1058)"/>
    <path d="M13.895 20.6077C13.6722 20.8047 13.3319 20.7836 13.135 20.5608C12.9381 20.338 12.9591 19.9977 13.1819 19.8008C13.8176 19.239 14.651 18.9219 15.5339 18.9219C17.1546 18.9219 18.5543 19.9935 18.9086 21.4901C18.9771 21.7795 18.798 22.0697 18.5086 22.1382C18.2193 22.2067 17.9292 22.0276 17.8606 21.7382C17.623 20.7344 16.6623 19.9988 15.5339 19.9988C14.9143 19.9988 14.3344 20.2195 13.895 20.6077Z" fill="#1A062E"/>
    <path d="M10.6154 15.2308C11.5075 15.2308 12.2308 14.5075 12.2308 13.6154C12.2308 12.7232 11.5075 12 10.6154 12C9.72323 12 9 12.7232 9 13.6154C9 14.5075 9.72323 15.2308 10.6154 15.2308Z" fill="#1A062E"/>
    <path d="M21.3849 15.2308C22.2771 15.2308 23.0003 14.5075 23.0003 13.6154C23.0003 12.7232 22.2771 12 21.3849 12C20.4928 12 19.7695 12.7232 19.7695 13.6154C19.7695 14.5075 20.4928 15.2308 21.3849 15.2308Z" fill="#1A062E"/>
  </g>
  <defs>
    <linearGradient id="paint0_linear_968_1058" x1="16" y1="0" x2="16" y2="32" gradientUnits="userSpaceOnUse">
      <stop stop-color="#FFE8AC"/>
      <stop offset="1" stop-color="#F0B214"/>
    </linearGradient>
    <clipPath id="clip0_968_1058">
      <rect width="32" height="32" fill="white"/>
    </clipPath>
  </defs>
</svg>