<svg xmlns="http://www.w3.org/2000/svg" width="32" height="32" viewBox="0 0 32 32" fill="none">
  <g clip-path="url(#clip0_968_1042)">
    <circle cx="16" cy="16" r="16" fill="url(#paint0_linear_968_1042)"/>
    <path d="M11 13.2931L12.1464 12.1465C12.3417 11.9512 12.6582 11.9512 12.8535 12.1464C13.0488 12.3417 13.0488 12.6583 12.8536 12.8535L11.7071 14.0002L12.8536 15.1469C13.0488 15.3422 13.0488 15.6587 12.8535 15.854C12.6582 16.0492 12.3417 16.0492 12.1464 15.8539L11 14.7074L9.85357 15.8539C9.65832 16.0492 9.34175 16.0492 9.14648 15.854C8.9512 15.6587 8.95117 15.3422 9.14642 15.1469L10.2929 14.0002L9.14642 12.8535C8.95117 12.6583 8.9512 12.3417 9.14648 12.1464C9.34175 11.9512 9.65832 11.9512 9.85357 12.1465L11 13.2931Z" fill="#1A062E"/>
    <path d="M21 13.2931L22.1464 12.1465C22.3417 11.9512 22.6582 11.9512 22.8535 12.1464C23.0488 12.3417 23.0488 12.6583 22.8536 12.8535L21.7071 14.0002L22.8536 15.1469C23.0488 15.3422 23.0488 15.6587 22.8535 15.854C22.6582 16.0492 22.3417 16.0492 22.1464 15.8539L21 14.7074L19.8536 15.8539C19.6583 16.0492 19.3418 16.0492 19.1465 15.854C18.9512 15.6587 18.9512 15.3422 19.1464 15.1469L20.2929 14.0002L19.1464 12.8535C18.9512 12.6583 18.9512 12.3417 19.1465 12.1464C19.3418 11.9512 19.6583 11.9512 19.8536 12.1465L21 13.2931Z" fill="#1A062E"/>
    <path d="M12.8365 21.5763C12.6323 21.7622 12.316 21.7473 12.1302 21.543C11.9443 21.3388 11.9592 21.0225 12.1635 20.8367L12.892 20.1738C13.3201 19.7843 13.9597 19.7396 14.4378 20.0659L14.5672 20.1542C14.6715 20.2253 14.8125 20.2076 14.8959 20.1127L15.0613 19.9247C15.5171 19.4062 16.3069 19.3554 16.8254 19.8113C16.8655 19.8466 16.9034 19.8845 16.9388 19.9247L17.1041 20.1127C17.1875 20.2076 17.3285 20.2253 17.4328 20.1542L17.5622 20.0659C18.0403 19.7396 18.6799 19.7843 19.108 20.1738L19.8365 20.8367C20.0408 21.0225 20.0557 21.3388 19.8698 21.543C19.684 21.7473 19.3677 21.7622 19.1635 21.5763L18.435 20.9135C18.3494 20.8355 18.2215 20.8266 18.1258 20.8919L17.9965 20.9802C17.475 21.336 16.77 21.2472 16.3531 20.773L16.1878 20.5849C16.1807 20.5769 16.1731 20.5693 16.1651 20.5623C16.0614 20.4711 15.9034 20.4813 15.8123 20.5849L15.6469 20.773C15.23 21.2472 14.525 21.336 14.0035 20.9802L13.8742 20.8919C13.7786 20.8266 13.6506 20.8355 13.565 20.9135L12.8365 21.5763Z" fill="#1A062E"/>
  </g>
  <defs>
    <linearGradient id="paint0_linear_968_1042" x1="16" y1="0" x2="16" y2="32" gradientUnits="userSpaceOnUse">
      <stop stop-color="#FFE8AC"/>
      <stop offset="1" stop-color="#F0B214"/>
    </linearGradient>
    <clipPath id="clip0_968_1042">
      <rect width="32" height="32" fill="white"/>
    </clipPath>
  </defs>
</svg>