<svg xmlns="http://www.w3.org/2000/svg" width="32" height="32" viewBox="0 0 32 32" fill="none">
  <g clip-path="url(#clip0_968_1074)">
    <circle cx="16" cy="16" r="16" fill="url(#paint0_linear_968_1074)"/>
    <path d="M13.7666 19.1103C14.2979 19.5552 15.0225 19.8123 15.8004 19.8123C16.5782 19.8123 17.3028 19.5552 17.8341 19.1103C18.1617 18.836 18.655 19.1096 18.5959 19.5327C18.3784 21.0882 17.211 22.2681 15.8004 22.2681C14.3897 22.2681 13.2223 21.0882 13.0049 19.5327C12.9457 19.1096 13.4391 18.836 13.7666 19.1103ZM15.8004 21.3348C16.3757 21.3348 16.9069 21.0128 17.2603 20.4941C16.8047 20.6583 16.3101 20.7456 15.8004 20.7456C15.2907 20.7456 14.796 20.6583 14.3405 20.4941C14.6939 21.0128 15.2251 21.3348 15.8004 21.3348Z" fill="#1A062E"/>
    <path d="M9.10809 13.7653C8.94315 13.5673 8.96998 13.273 9.16803 13.1081C9.36607 12.9431 9.66033 12.97 9.82526 13.168C10.1806 13.5946 10.732 13.8517 11.3333 13.8517C11.9347 13.8517 12.4861 13.5946 12.8414 13.168C13.0064 12.97 13.3006 12.9431 13.4987 13.1081C13.6967 13.273 13.7235 13.5673 13.5586 13.7653C13.0255 14.4054 12.2111 14.7851 11.3333 14.7851C10.4556 14.7851 9.64114 14.4054 9.10809 13.7653Z" fill="#1A062E"/>
    <path d="M18.4421 13.7653C18.2771 13.5673 18.304 13.273 18.502 13.1081C18.7001 12.9431 18.9943 12.97 19.1592 13.168C19.5145 13.5946 20.066 13.8517 20.6673 13.8517C21.2687 13.8517 21.8201 13.5946 22.1754 13.168C22.3403 12.97 22.6346 12.9431 22.8326 13.1081C23.0307 13.273 23.0575 13.5673 22.8926 13.7653C22.3595 14.4054 21.5451 14.7851 20.6673 14.7851C19.7895 14.7851 18.9751 14.4054 18.4421 13.7653Z" fill="#1A062E"/>
  </g>
  <defs>
    <linearGradient id="paint0_linear_968_1074" x1="16" y1="0" x2="16" y2="32" gradientUnits="userSpaceOnUse">
      <stop stop-color="#FFE8AC"/>
      <stop offset="1" stop-color="#F0B214"/>
    </linearGradient>
    <clipPath id="clip0_968_1074">
      <rect width="32" height="32" fill="white"/>
    </clipPath>
  </defs>
</svg>