<svg width="10" height="30" viewBox="0 0 10 30" fill="none" xmlns="http://www.w3.org/2000/svg">
<g id="Group">
<path id="Vector" d="M0.677516 28.7619L1.04101 27.2229L2.08145 27.4673L1.71796 29.0063C1.65041 29.2927 1.36269 29.4702 1.07533 29.4028C0.787973 29.3351 0.609595 29.0483 0.677516 28.7619Z" fill="#703232"/>
<path id="Vector_2" d="M0.651367 23.7577L5.31655 3.80176L8.6127 4.57552L3.94791 24.5311L0.651367 23.7577Z" fill="#EFB05E"/>
<path id="Vector_3" d="M6.02611 0.798943L5.31641 3.80173L8.61292 4.57511L9.32263 1.57233C9.407 1.21521 9.18488 0.857719 8.82648 0.773647L6.82765 0.304555C6.46925 0.220855 6.11011 0.442195 6.02611 0.798943Z" fill="#E66F55"/>
<path id="Vector_4" d="M0.903363 27.5609L0.651367 23.7576L3.94791 24.531L2.0189 27.8228L0.903363 27.5609Z" fill="white"/>
<path id="Vector_5" d="M7.51392 9.47136L8.70605 4.42651L5.2977 3.62684L4.10557 8.67168L7.51392 9.47136Z" fill="white"/>
<path id="Vector_6" d="M5.11486 4.35005L5.0293 4.71216L8.43765 5.51183L8.52322 5.14973L5.11486 4.35005Z" fill="#EACFC5"/>
<path id="Vector_7" d="M4.36682 7.56612L4.28125 7.92822L7.6896 8.7279L7.77517 8.36579L4.36682 7.56612Z" fill="#EACFC5"/>
</g>
</svg>
