<svg width="163" height="139" viewBox="0 0 163 139" fill="none" xmlns="http://www.w3.org/2000/svg">
<g id="Group">
<g id="Group_2">
<path id="Vector" d="M131.384 60.2888H22.667V62.096H131.384V60.2888Z" fill="white"/>
<path id="Vector_2" d="M21.5237 66.9368H15.6471C15.0157 66.9368 14.5039 66.4268 14.5039 65.7978V56.5878C14.5039 55.9587 15.0157 55.4487 15.6471 55.4487H21.5237C22.155 55.4487 22.6668 55.9587 22.6668 56.5878V65.7978C22.6672 66.4268 22.1554 66.9368 21.5237 66.9368Z" fill="#703232"/>
<path id="Vector_3" d="M134.169 66.9368H132.456C131.864 66.9368 131.384 66.4588 131.384 65.8692V56.5164C131.384 55.9267 131.864 55.4487 132.456 55.4487H134.169C134.761 55.4487 135.241 55.9267 135.241 56.5164V65.8692C135.241 66.4588 134.761 66.9368 134.169 66.9368Z" fill="#703232"/>
<path id="Vector_4" d="M17.278 60.0698H3.03494C2.68475 60.0698 2.37116 60.2848 2.24572 60.6103L0.250248 65.793C0.0378216 66.3447 0.446621 66.9369 1.03947 66.9369H2.75755C3.09878 66.9369 3.40641 66.7327 3.53782 66.4188L5.27158 62.2724C5.40299 61.9585 5.71062 61.7542 6.05185 61.7542H17.5815L17.278 60.0698Z" fill="#703232"/>
</g>
<path id="Vector_5" d="M24.748 53.8428V74.6391H40.3795C41.4495 74.6391 42.4765 75.0572 43.24 75.8038L46.9696 79.4502C47.7331 80.1968 48.7601 80.6149 49.8301 80.6149H74.3834H79.6474H104.201C105.271 80.6149 106.298 80.1968 107.061 79.4502L110.791 75.8038C111.554 75.0572 112.581 74.6391 113.651 74.6391H129.283V53.8558C129.283 51.244 127.158 49.1262 124.536 49.1262H29.4819C26.8671 49.1262 24.748 51.2381 24.748 53.8428Z" fill="#5D79B2"/>
<g id="Group_3">
<path id="Vector_6" d="M96.6699 70.5366C102.527 43.477 122.739 1.09574 140.194 11.5106C157.649 21.9255 129.907 59.813 108.733 77.7341L96.6699 70.5366Z" fill="#BFB685"/>
<path id="Vector_7" d="M136.554 17.3709L102.492 74.0127L102.812 74.2039L136.874 17.5621L136.554 17.3709Z" fill="#93854C"/>
<path id="Vector_8" d="M138.062 32.4628L127.531 32.5237L127.533 32.8957L138.064 32.8348L138.062 32.4628Z" fill="#93854C"/>
<path id="Vector_9" d="M115.497 64.5811L108.242 64.6238L108.244 64.9958L115.499 64.9531L115.497 64.5811Z" fill="#93854C"/>
<path id="Vector_10" d="M114.45 37.1999L114.12 37.3735L119.035 46.6539L119.365 46.4803L114.45 37.1999Z" fill="#93854C"/>
<path id="Vector_11" d="M131.772 17.1004L131.442 17.2739L133.9 21.9137L134.23 21.7402L131.772 17.1004Z" fill="#93854C"/>
</g>
<g id="Group_4">
<path id="Vector_12" d="M106.009 74.6445L105.687 74.4566C114.39 59.6235 124.429 50.9328 135.524 48.6253C148.006 46.0291 157.395 52.7166 157.489 52.7846L157.269 53.0852C157.177 53.0186 147.915 46.4264 135.594 48.991C124.609 51.278 114.655 59.9092 106.009 74.6445Z" fill="#93854C"/>
<path id="Vector_13" d="M160.748 53.6392C162.156 54.8441 162.21 57.0839 162.21 57.0839C162.21 57.0839 159.98 57.37 158.571 56.165C157.163 54.9601 157.109 52.7203 157.109 52.7203C157.109 52.7203 159.339 52.4343 160.748 53.6392Z" fill="#BFB685"/>
<path id="Vector_14" d="M152.499 52.2459C152.995 54.0286 151.787 55.9183 151.787 55.9183C151.787 55.9183 149.775 54.9177 149.28 53.135C148.784 51.3524 149.992 49.4626 149.992 49.4626C149.992 49.4626 152.003 50.4633 152.499 52.2459Z" fill="#BFB685"/>
<path id="Vector_15" d="M144.77 49.9637C145.847 51.4703 145.36 53.6577 145.36 53.6577C145.36 53.6577 143.126 53.4021 142.049 51.8951C140.972 50.3885 141.46 48.2012 141.46 48.2012C141.46 48.2012 143.693 48.4571 144.77 49.9637Z" fill="#BFB685"/>
<path id="Vector_16" d="M136.056 49.7654C137.676 50.6679 138.175 52.8526 138.175 52.8526C138.175 52.8526 136.046 53.5739 134.426 52.6715C132.805 51.769 132.307 49.5842 132.307 49.5842C132.307 49.5842 134.435 48.8629 136.056 49.7654Z" fill="#BFB685"/>
<path id="Vector_17" d="M157.278 51.5299C155.509 52.089 153.569 50.9556 153.569 50.9556C153.569 50.9556 154.499 48.9155 156.269 48.3564C158.038 47.7973 159.978 48.9308 159.978 48.9308C159.978 48.9308 159.048 50.9708 157.278 51.5299Z" fill="#BFB685"/>
<path id="Vector_18" d="M140.605 46.6515C139.633 48.2276 137.422 48.6346 137.422 48.6346C137.422 48.6346 136.786 46.4856 137.758 44.9094C138.729 43.3332 140.94 42.9263 140.94 42.9263C140.94 42.9263 141.577 45.0753 140.605 46.6515Z" fill="#BFB685"/>
</g>
<g id="Group_5">
<path id="Vector_19" d="M118.475 12.405C120.326 12.2704 121.949 13.8212 121.949 13.8212C121.949 13.8212 120.57 15.5905 118.718 15.7251C116.867 15.8598 115.244 14.3089 115.244 14.3089C115.244 14.3089 116.624 12.5397 118.475 12.405Z" fill="#BFB685"/>
<path id="Vector_20" d="M97.7437 64.1442L97.3711 64.1189C98.7117 44.7161 104.977 30.4171 109.997 21.8388C115.44 12.5385 120.64 7.7616 120.692 7.71436L120.943 7.98926C120.892 8.03613 115.726 12.784 110.311 22.0408C105.315 30.5827 99.0784 44.8214 97.7437 64.1442Z" fill="#93854C"/>
<path id="Vector_21" d="M121.534 4.92361C122.905 3.67555 125.142 3.89205 125.142 3.89205C125.142 3.89205 125.159 6.13223 123.789 7.38067C122.418 8.62873 120.181 8.41222 120.181 8.41222C120.181 8.41222 120.164 6.17167 121.534 4.92361Z" fill="#BFB685"/>
<path id="Vector_22" d="M117.847 7.50786C118.627 9.1867 117.743 11.2465 117.743 11.2465C117.743 11.2465 115.595 10.5847 114.816 8.90584C114.036 7.227 114.92 5.16724 114.92 5.16724C114.92 5.16724 117.067 5.8294 117.847 7.50786Z" fill="#BFB685"/>
</g>
<g id="Group_6">
<path id="Vector_23" d="M46.7758 67.3434C42.3678 45.5092 33.13 30.1992 26.1569 21.2005C18.6007 11.4492 12.0013 6.80184 11.9355 6.75608L12.1491 6.45142C12.2155 6.49754 18.8519 11.1687 26.4418 20.9598C33.4433 29.9916 42.7176 45.3578 47.1412 67.2701L46.7758 67.3434Z" fill="#93854C"/>
<path id="Vector_24" d="M8.64185 6.19889C7.13881 5.11302 6.90137 2.88511 6.90137 2.88511C6.90137 2.88511 9.1003 2.41788 10.6033 3.50375C12.1064 4.58962 12.3438 6.81752 12.3438 6.81752C12.3438 6.81752 10.1449 7.28476 8.64185 6.19889Z" fill="#BFB685"/>
<path id="Vector_25" d="M21.0448 12.2254C21.4909 10.4298 23.4737 9.37402 23.4737 9.37402C23.4737 9.37402 24.7337 11.2296 24.2879 13.0252C23.8418 14.8208 21.859 15.8766 21.859 15.8766C21.859 15.8766 20.5987 14.021 21.0448 12.2254Z" fill="#BFB685"/>
<path id="Vector_26" d="M27.2479 19.8011C27.6941 18.0054 29.6768 16.9497 29.6768 16.9497C29.6768 16.9497 30.9368 18.8052 30.4911 20.6009C30.0449 22.3965 28.0622 23.4523 28.0622 23.4523C28.0622 23.4523 26.8018 21.5967 27.2479 19.8011Z" fill="#BFB685"/>
<path id="Vector_27" d="M15.0076 6.20416C15.4537 4.40852 17.4365 3.35278 17.4365 3.35278C17.4365 3.35278 18.6965 5.20832 18.2507 7.00397C17.8046 8.79961 15.8215 9.85535 15.8215 9.85535C15.8215 9.85535 14.5618 7.99981 15.0076 6.20416Z" fill="#BFB685"/>
<path id="Vector_28" d="M21.6823 21.4369C19.8455 21.7062 18.1133 20.2781 18.1133 20.2781C18.1133 20.2781 19.3587 18.4129 21.1955 18.1432C23.0323 17.8739 24.7646 19.302 24.7646 19.302C24.7646 19.302 23.5191 21.1675 21.6823 21.4369Z" fill="#BFB685"/>
<path id="Vector_29" d="M16.073 14.9112C14.2362 15.1809 12.5039 13.7525 12.5039 13.7525C12.5039 13.7525 13.7494 11.8873 15.5862 11.6176C17.423 11.3482 19.1552 12.7763 19.1552 12.7763C19.1552 12.7763 17.9098 14.6415 16.073 14.9112Z" fill="#BFB685"/>
</g>
<g id="Group_7">
<path id="Vector_30" d="M48.237 53.48C35.3013 37.4055 22.8951 6.09018 41.8952 1.31519C60.8952 -3.4598 65.1045 29.9153 61.3671 50.18L48.237 53.48Z" fill="#BFB685"/>
<path id="Vector_31" d="M43.3421 6.02506L42.9805 6.11597L54.5673 51.8823L54.9289 51.7914L43.3421 6.02506Z" fill="#93854C"/>
<path id="Vector_32" d="M51.4359 12.9248L46.1533 18.2695L46.4196 18.5308L51.7022 13.1861L51.4359 12.9248Z" fill="#93854C"/>
<path id="Vector_33" d="M56.3568 40.5189L52.7178 44.2007L52.984 44.462L56.623 40.7802L56.3568 40.5189Z" fill="#93854C"/>
<path id="Vector_34" d="M41.9762 27.2144L41.8662 27.5703L49.0606 29.7771L49.1706 29.4212L41.9762 27.2144Z" fill="#93854C"/>
<path id="Vector_35" d="M40.521 8.32437L40.4111 8.67993L44.0087 9.78333L44.1185 9.42777L40.521 8.32437Z" fill="#93854C"/>
</g>
<g id="Group_8">
<path id="Vector_36" d="M49.3043 71.6005C43.3519 50.1495 26.2267 15.8188 14.5862 22.764C2.94567 29.7093 25.0929 61.0439 41.2601 76.4001L49.3043 71.6005Z" fill="#BFB685"/>
<path id="Vector_37" d="M17.6103 27.5291L17.29 27.7202L45.1467 74.0758L45.4669 73.8847L17.6103 27.5291Z" fill="#93854C"/>
<path id="Vector_38" d="M16.3461 39.8687L16.3438 40.2407L24.9614 40.294L24.9637 39.922L16.3461 39.8687Z" fill="#93854C"/>
<path id="Vector_39" d="M34.8119 66.1512L34.8096 66.5232L40.7463 66.5599L40.7486 66.1879L34.8119 66.1512Z" fill="#93854C"/>
<path id="Vector_40" d="M35.6297 43.7707L31.6084 51.364L31.9385 51.5376L35.9598 43.9443L35.6297 43.7707Z" fill="#93854C"/>
<path id="Vector_41" d="M21.4538 27.3244L19.4434 31.1206L19.7732 31.294L21.7837 27.4978L21.4538 27.3244Z" fill="#93854C"/>
</g>
<g id="Group_9">
<path id="Vector_42" d="M34.9756 12.3047V74.6389H40.3788C41.4488 74.6389 42.4759 75.057 43.2393 75.8036L46.9693 79.45C47.7328 80.1966 48.7598 80.6147 49.8294 80.6147H104.2C105.27 80.6147 106.296 80.1966 107.06 79.45L110.79 75.8036C111.554 75.057 112.581 74.6389 113.65 74.6389H119.054V12.3047H34.9756Z" fill="white"/>
<g id="Group_10">
<g id="Once Upon a Time in...">
<path d="M49.2924 22.8662C48.9103 22.8662 48.5791 22.7823 48.2986 22.6146C48.0181 22.4469 47.8003 22.21 47.6454 21.9039C47.4931 21.5978 47.417 21.2371 47.417 20.8218C47.417 20.4039 47.4931 20.0419 47.6454 19.7358C47.8003 19.427 48.0181 19.1887 48.2986 19.021C48.5817 18.8533 48.9143 18.7695 49.2964 18.7695C49.6784 18.7695 50.0096 18.8533 50.2901 19.021C50.5733 19.1887 50.791 19.4256 50.9433 19.7318C51.0983 20.0352 51.1757 20.3959 51.1757 20.8138C51.1757 21.2318 51.0983 21.5951 50.9433 21.9039C50.791 22.21 50.5733 22.4469 50.2901 22.6146C50.0096 22.7823 49.677 22.8662 49.2924 22.8662ZM49.3965 22.4749C50.0698 22.4749 50.4064 21.9718 50.4064 20.9656C50.4064 20.3853 50.3008 19.9394 50.0898 19.628C49.8814 19.3165 49.5835 19.1608 49.1962 19.1608C48.523 19.1608 48.1864 19.6639 48.1864 20.6701C48.1864 21.2531 48.2906 21.7003 48.4989 22.0117C48.71 22.3205 49.0092 22.4749 49.3965 22.4749Z" fill="#703232"/>
<path d="M53.9086 22.7703V20.7579C53.9086 20.3933 53.7323 20.2109 53.3797 20.2109C53.1019 20.2109 52.8214 20.3227 52.5382 20.5463L52.458 20.3467C52.621 20.155 52.808 20.0073 53.019 19.9035C53.2301 19.7996 53.4518 19.7477 53.6842 19.7477C53.9621 19.7477 54.1758 19.8249 54.3254 19.9793C54.475 20.1311 54.5498 20.3493 54.5498 20.6342V22.7703H53.9086ZM52.0974 22.7703V20.1031L52.7385 20.2708V22.7703H52.0974ZM51.6887 22.7943L51.7087 22.5547C51.7862 22.5175 51.8636 22.4869 51.9411 22.4629C52.0186 22.4389 52.0961 22.4176 52.1735 22.399L52.0974 22.6945V22.1475H52.7385V22.6945L52.6744 22.431L53.1633 22.5467L53.1433 22.7943H51.6887ZM53.572 22.7943L53.5921 22.5388C53.6482 22.5095 53.7083 22.4842 53.7724 22.4629C53.8365 22.4389 53.9073 22.4176 53.9848 22.399L53.9086 22.6945V22.1475H54.5498V22.6945L54.4857 22.431L54.9746 22.5467L54.9545 22.7943H53.572ZM52.0974 20.7619V20.2508L52.1936 20.4265L51.6406 20.163L51.6566 19.9953C51.7741 19.9421 51.9104 19.8968 52.0653 19.8595C52.2203 19.8223 52.3859 19.7957 52.5622 19.7797L52.7145 20.4146L52.0974 20.7619Z" fill="#703232"/>
<path d="M56.8499 22.8582C56.3824 22.8582 56.0218 22.7291 55.768 22.4709C55.5169 22.2127 55.3913 21.844 55.3913 21.3649C55.3913 20.8697 55.5209 20.4758 55.78 20.183C56.0418 19.8902 56.3931 19.7437 56.8339 19.7437C57.1571 19.7437 57.4443 19.8156 57.6954 19.9594C57.7168 20.0579 57.7328 20.171 57.7435 20.2988C57.7542 20.4265 57.7555 20.5596 57.7475 20.698H57.427L57.0984 20.0113L57.443 20.3107C57.3415 20.2495 57.2319 20.2016 57.1144 20.167C56.9968 20.1324 56.8887 20.1151 56.7898 20.1151C56.5681 20.1151 56.3971 20.2096 56.2769 20.3986C56.1567 20.5876 56.0966 20.8604 56.0966 21.2171C56.0966 22.0024 56.4185 22.395 57.0623 22.395C57.3188 22.395 57.5792 22.3458 57.8437 22.2473L57.8157 22.6226C57.5592 22.7797 57.2373 22.8582 56.8499 22.8582Z" fill="#703232"/>
<path d="M59.699 22.8582C59.2155 22.8582 58.8428 22.7278 58.581 22.4669C58.3192 22.206 58.1883 21.8334 58.1883 21.3489C58.1883 20.8564 58.3165 20.4665 58.573 20.179C58.8295 19.8888 59.1754 19.7437 59.6109 19.7437C60.0009 19.7437 60.3014 19.8662 60.5125 20.1111C60.7235 20.3533 60.8291 20.702 60.8291 21.1572C60.8291 21.1972 60.8277 21.2371 60.8251 21.277C60.8224 21.3169 60.8184 21.3555 60.813 21.3928L60.1398 21.265C60.1398 20.8578 60.0904 20.5636 59.9916 20.3826C59.8954 20.2016 59.7378 20.1111 59.5187 20.1111C59.0913 20.1111 58.8776 20.4478 58.8776 21.1213C58.8776 21.9704 59.2182 22.395 59.8994 22.395C60.1665 22.395 60.4457 22.3404 60.7369 22.2313L60.7088 22.6066C60.5833 22.6865 60.4323 22.7491 60.256 22.7943C60.0824 22.8369 59.8967 22.8582 59.699 22.8582ZM58.4488 21.3928V21.0654H60.7489L60.813 21.3928H58.4488Z" fill="#703232"/>
<path d="M64.5037 22.8622C64.0495 22.8622 63.6875 22.7517 63.4177 22.5308C63.1479 22.3098 63.013 22.013 63.013 21.6404L63.7022 21.5565C63.7022 21.8227 63.7797 22.029 63.9346 22.1754C64.0896 22.3192 64.31 22.391 64.5958 22.391C64.8817 22.391 65.1021 22.3192 65.257 22.1754C65.4119 22.029 65.4894 21.8227 65.4894 21.5565L65.9943 21.6404C65.9943 22.013 65.8594 22.3098 65.5896 22.5308C65.3198 22.7517 64.9578 22.8622 64.5037 22.8622ZM63.013 21.6404V18.8973H63.7022V21.5565L63.013 21.6404ZM63.013 19.5122V18.9532L63.0731 19.2207L62.5882 19.1049L62.6082 18.8414H64.2071L64.1871 19.0969C64.1256 19.1209 64.0455 19.1461 63.9467 19.1728C63.8478 19.1994 63.7356 19.226 63.61 19.2526L63.7022 18.9532V19.5122H63.013ZM65.9943 21.6404L65.4894 21.5565V18.8973H65.9943V21.6404ZM65.4894 19.5122V18.9532L65.5656 19.2207L64.9685 19.1049L64.9885 18.8414H66.4031L66.383 19.0969C66.2601 19.1555 66.1052 19.2074 65.9182 19.2526L65.9943 18.9532V19.5122H65.4894Z" fill="#703232"/>
<path d="M68.2544 22.8662C67.8483 22.8662 67.5651 22.7411 67.4049 22.4908L67.5331 22.1914C67.7708 22.391 68.026 22.4908 68.2985 22.4908C68.5603 22.4908 68.7606 22.3924 68.8995 22.1954C69.0385 21.9957 69.1079 21.7122 69.1079 21.3449C69.1079 20.9802 69.0385 20.6994 68.8995 20.5024C68.7633 20.3054 68.5683 20.2069 68.3145 20.2069C68.0714 20.2069 67.8216 20.3067 67.5651 20.5064L67.489 20.3347C67.8203 19.9407 68.1916 19.7437 68.603 19.7437C68.969 19.7437 69.2589 19.8755 69.4726 20.139C69.689 20.4026 69.7971 20.7579 69.7971 21.2051C69.7971 21.7109 69.6569 22.1142 69.3764 22.415C69.0986 22.7158 68.7246 22.8662 68.2544 22.8662ZM66.7196 24.072L66.7397 23.8325C66.8171 23.7952 66.8946 23.7646 66.9721 23.7406C67.0496 23.7167 67.127 23.6954 67.2045 23.6767L67.1284 23.9722V23.4252H67.7695V23.9722L67.7054 23.7127L68.3546 23.8245L68.3345 24.072H66.7196ZM67.1284 24.0281V20.1111L67.7695 20.2748V24.0281H67.1284ZM67.1284 20.7619V20.2508L67.2245 20.4265L66.6715 20.163L66.6876 19.9953C66.8051 19.9421 66.9414 19.8968 67.0963 19.8595C67.2512 19.8223 67.4169 19.7957 67.5932 19.7797L67.7455 20.4146L67.1284 20.7619Z" fill="#703232"/>
<path d="M71.7246 22.8662C71.2811 22.8662 70.9285 22.7264 70.6667 22.4469C70.4049 22.1648 70.274 21.7868 70.274 21.3129C70.274 20.8338 70.4062 20.4531 70.6707 20.171C70.9352 19.8862 71.2905 19.7437 71.7366 19.7437C72.1801 19.7437 72.5314 19.8848 72.7905 20.167C73.0523 20.4465 73.1832 20.8245 73.1832 21.301C73.1832 21.7801 73.051 22.1608 72.7865 22.4429C72.5247 22.7251 72.1707 22.8662 71.7246 22.8662ZM71.7927 22.4908C72.2495 22.4908 72.478 22.1302 72.478 21.4088C72.478 20.9935 72.4072 20.6754 72.2656 20.4545C72.1267 20.2309 71.9263 20.1191 71.6645 20.1191C71.2077 20.1191 70.9793 20.4798 70.9793 21.2011C70.9793 21.6164 71.0501 21.9358 71.1917 22.1594C71.3332 22.3804 71.5336 22.4908 71.7927 22.4908Z" fill="#703232"/>
<path d="M75.8921 22.7703V20.7579C75.8921 20.3933 75.7158 20.2109 75.3631 20.2109C75.0853 20.2109 74.8048 20.3227 74.5216 20.5463L74.4415 20.3467C74.6044 20.155 74.7914 20.0073 75.0025 19.9035C75.2135 19.7996 75.4353 19.7477 75.6677 19.7477C75.9455 19.7477 76.1592 19.8249 76.3088 19.9793C76.4584 20.1311 76.5332 20.3493 76.5332 20.6342V22.7703H75.8921ZM74.0808 22.7703V20.1031L74.722 20.2708V22.7703H74.0808ZM73.6721 22.7943L73.6921 22.5547C73.7696 22.5175 73.8471 22.4869 73.9246 22.4629C74.002 22.4389 74.0795 22.4176 74.157 22.399L74.0808 22.6945V22.1475H74.722V22.6945L74.6579 22.431L75.1467 22.5467L75.1267 22.7943H73.6721ZM75.5555 22.7943L75.5755 22.5388C75.6316 22.5095 75.6917 22.4842 75.7558 22.4629C75.82 22.4389 75.8908 22.4176 75.9682 22.399L75.8921 22.6945V22.1475H76.5332V22.6945L76.4691 22.431L76.958 22.5467L76.938 22.7943H75.5555ZM74.0808 20.7619V20.2508L74.177 20.4265L73.624 20.163L73.64 19.9953C73.7576 19.9421 73.8938 19.8968 74.0488 19.8595C74.2037 19.8223 74.3694 19.7957 74.5457 19.7797L74.6979 20.4146L74.0808 20.7619Z" fill="#703232"/>
<path d="M80.3641 22.3631C80.3641 22.1421 80.3668 21.9172 80.3721 21.6883C80.3775 21.4567 80.3801 21.2397 80.3801 21.0374V20.6861C80.3801 20.3081 80.1958 20.1191 79.8271 20.1191C79.584 20.1191 79.3596 20.1963 79.1539 20.3507L78.8975 20.6741C78.8895 20.4452 78.9028 20.2362 78.9375 20.0472C79.2955 19.8476 79.6735 19.7477 80.0716 19.7477C80.6994 19.7477 81.0133 20.0459 81.0133 20.6421C81.0133 20.7167 81.0119 20.8285 81.0093 20.9775C81.0066 21.124 81.0039 21.2823 81.0013 21.4527C80.9986 21.6204 80.9959 21.7788 80.9932 21.9279C80.9906 22.0743 80.9892 22.1874 80.9892 22.2672L80.3641 22.3631ZM78.8975 20.6741L78.9536 20.2189L79.5667 19.9873L79.2381 20.6741H78.8975ZM79.5426 22.8542C79.2888 22.8542 79.0872 22.7823 78.9375 22.6386C78.7879 22.4922 78.7131 22.2965 78.7131 22.0516C78.7131 21.5219 79.0992 21.1759 79.8712 21.0135L80.5244 20.8777L80.5645 21.2211L79.9914 21.293C79.7724 21.3196 79.6134 21.3795 79.5146 21.4727C79.4157 21.5632 79.3663 21.6989 79.3663 21.8799C79.3663 22.2313 79.5186 22.407 79.8231 22.407C80.0369 22.407 80.2853 22.3072 80.5685 22.1075L80.6406 22.2513C80.3174 22.6532 79.9514 22.8542 79.5426 22.8542ZM80.5244 22.8063L80.3882 22.2872L80.9892 22.1155V22.5507L80.9011 22.391L81.3899 22.5308L81.3699 22.7624C81.1509 22.797 80.869 22.8116 80.5244 22.8063Z" fill="#703232"/>
<path d="M84.3713 22.7344V18.8973H85.0445V22.7344H84.3713ZM82.9968 20.0193C82.9648 19.6093 82.9861 19.2167 83.0609 18.8414L83.6821 19.0689L83.2693 20.0193H82.9968ZM83.1331 19.2406L83.0609 18.8414H86.3549L86.2106 19.2406H83.1331ZM86.1465 20.0193L85.7337 19.0689L86.3549 18.8414C86.4297 19.2167 86.451 19.6093 86.419 20.0193H86.1465ZM83.8584 22.7943L83.8784 22.5388C83.9586 22.5095 84.0481 22.4815 84.1469 22.4549C84.2457 22.4283 84.3473 22.4057 84.4514 22.387L84.3713 22.6825V22.1235H85.0445V22.6825L84.9684 22.415L85.5735 22.5308L85.5534 22.7943H83.8584Z" fill="#703232"/>
<path d="M87.2164 22.7703V20.0991L87.8576 20.0232V22.7703H87.2164ZM87.2164 20.7619V20.2508L87.3126 20.4265L86.7596 20.163L86.7756 19.9953C86.8932 19.9421 87.0294 19.8968 87.1843 19.8595C87.3393 19.8223 87.5049 19.7957 87.6812 19.7797H87.8576V20.4146L87.2164 20.7619ZM86.7836 22.7943L86.8037 22.5547C86.8731 22.5228 86.9479 22.4948 87.0281 22.4709C87.1109 22.4443 87.2004 22.4203 87.2965 22.399L87.2164 22.6945V22.1475H87.8576V22.6945L87.7894 22.431L88.3064 22.5467L88.2863 22.7943H86.7836ZM87.4769 19.2646C87.346 19.2646 87.2418 19.2273 87.1643 19.1528C87.0895 19.0783 87.0521 18.9771 87.0521 18.8493C87.0521 18.7216 87.0895 18.6204 87.1643 18.5459C87.2418 18.4713 87.346 18.4341 87.4769 18.4341C87.6078 18.4341 87.7106 18.4713 87.7854 18.5459C87.8629 18.6204 87.9016 18.7216 87.9016 18.8493C87.9016 18.9771 87.8629 19.0783 87.7854 19.1528C87.7106 19.2273 87.6078 19.2646 87.4769 19.2646Z" fill="#703232"/>
<path d="M92.6742 22.7703V20.7579C92.6742 20.3933 92.5019 20.2109 92.1573 20.2109C91.8955 20.2109 91.6203 20.3227 91.3318 20.5463L91.2516 20.3467C91.5936 19.9474 91.997 19.7477 92.4618 19.7477C92.7343 19.7477 92.944 19.8249 93.0909 19.9793C93.2405 20.1311 93.3153 20.3493 93.3153 20.6342V22.7703H92.6742ZM88.7151 22.7943L88.7351 22.5547C88.8126 22.5175 88.8901 22.4869 88.9675 22.4629C89.045 22.4389 89.1225 22.4176 89.2 22.399L89.1238 22.6945V22.1475H89.765V22.6945L89.7009 22.431L90.1737 22.5467L90.1537 22.7943H88.7151ZM89.1238 22.7703V20.1031L89.765 20.2708V22.7703H89.1238ZM90.5584 22.7943L90.5784 22.5388C90.6345 22.5095 90.6946 22.4842 90.7588 22.4629C90.8229 22.4389 90.8937 22.4176 90.9711 22.399L90.895 22.6945V22.1475H91.5362V22.6945L91.472 22.431L91.9449 22.5467L91.9249 22.7943H90.5584ZM90.895 22.7703V20.7579C90.895 20.3933 90.7254 20.2109 90.3861 20.2109C90.1216 20.2109 89.8478 20.3227 89.5646 20.5463L89.4845 20.3467C89.8237 19.9474 90.2245 19.7477 90.6866 19.7477C90.9564 19.7477 91.1648 19.8223 91.3118 19.9713C91.4614 20.1177 91.5362 20.3334 91.5362 20.6182V22.7703H90.895ZM89.1238 20.7619V20.2508L89.22 20.4265L88.667 20.163L88.683 19.9953C88.8006 19.9421 88.9368 19.8968 89.0918 19.8595C89.2467 19.8223 89.4123 19.7957 89.5887 19.7797L89.7409 20.4146L89.1238 20.7619ZM92.3376 22.7943L92.3576 22.5388C92.4137 22.5095 92.4738 22.4842 92.538 22.4629C92.6021 22.4389 92.6729 22.4176 92.7503 22.399L92.6742 22.6945V22.1475H93.3153V22.6945L93.2512 22.431L93.7401 22.5467L93.7201 22.7943H92.3376Z" fill="#703232"/>
<path d="M95.6676 22.8582C95.184 22.8582 94.8114 22.7278 94.5496 22.4669C94.2878 22.206 94.1569 21.8334 94.1569 21.3489C94.1569 20.8564 94.2851 20.4665 94.5415 20.179C94.798 19.8888 95.144 19.7437 95.5794 19.7437C95.9694 19.7437 96.27 19.8662 96.481 20.1111C96.6921 20.3533 96.7976 20.702 96.7976 21.1572C96.7976 21.1972 96.7963 21.2371 96.7936 21.277C96.7909 21.3169 96.7869 21.3555 96.7816 21.3928L96.1084 21.265C96.1084 20.8578 96.0589 20.5636 95.9601 20.3826C95.8639 20.2016 95.7063 20.1111 95.4872 20.1111C95.0598 20.1111 94.8461 20.4478 94.8461 21.1213C94.8461 21.9704 95.1867 22.395 95.8679 22.395C96.1351 22.395 96.4142 22.3404 96.7054 22.2313L96.6774 22.6066C96.5518 22.6865 96.4009 22.7491 96.2246 22.7943C96.0509 22.8369 95.8653 22.8582 95.6676 22.8582ZM94.4173 21.3928V21.0654H96.7175L96.7816 21.3928H94.4173Z" fill="#703232"/>
<path d="M99.0617 22.7703V20.0991L99.7028 20.0232V22.7703H99.0617ZM99.0617 20.7619V20.2508L99.1578 20.4265L98.6048 20.163L98.6209 19.9953C98.7384 19.9421 98.8747 19.8968 99.0296 19.8595C99.1846 19.8223 99.3502 19.7957 99.5265 19.7797H99.7028V20.4146L99.0617 20.7619ZM98.6289 22.7943L98.6489 22.5547C98.7184 22.5228 98.7932 22.4948 98.8733 22.4709C98.9561 22.4443 99.0456 22.4203 99.1418 22.399L99.0617 22.6945V22.1475H99.7028V22.6945L99.6347 22.431L100.152 22.5467L100.132 22.7943H98.6289ZM99.3221 19.2646C99.1912 19.2646 99.087 19.2273 99.0096 19.1528C98.9348 19.0783 98.8974 18.9771 98.8974 18.8493C98.8974 18.7216 98.9348 18.6204 99.0096 18.5459C99.087 18.4713 99.1912 18.4341 99.3221 18.4341C99.453 18.4341 99.5559 18.4713 99.6307 18.5459C99.7082 18.6204 99.7469 18.7216 99.7469 18.8493C99.7469 18.9771 99.7082 19.0783 99.6307 19.1528C99.5559 19.2273 99.453 19.2646 99.3221 19.2646Z" fill="#703232"/>
<path d="M102.78 22.7703V20.7579C102.78 20.3933 102.604 20.2109 102.251 20.2109C101.974 20.2109 101.693 20.3227 101.41 20.5463L101.33 20.3467C101.493 20.155 101.68 20.0073 101.891 19.9035C102.102 19.7996 102.324 19.7477 102.556 19.7477C102.834 19.7477 103.047 19.8249 103.197 19.9793C103.347 20.1311 103.421 20.3493 103.421 20.6342V22.7703H102.78ZM100.969 22.7703V20.1031L101.61 20.2708V22.7703H100.969ZM100.56 22.7943L100.58 22.5547C100.658 22.5175 100.735 22.4869 100.813 22.4629C100.89 22.4389 100.968 22.4176 101.045 22.399L100.969 22.6945V22.1475H101.61V22.6945L101.546 22.431L102.035 22.5467L102.015 22.7943H100.56ZM102.444 22.7943L102.464 22.5388C102.52 22.5095 102.58 22.4842 102.644 22.4629C102.708 22.4389 102.779 22.4176 102.856 22.399L102.78 22.6945V22.1475H103.421V22.6945L103.357 22.431L103.846 22.5467L103.826 22.7943H102.444ZM100.969 20.7619V20.2508L101.065 20.4265L100.512 20.163L100.528 19.9953C100.646 19.9421 100.782 19.8968 100.937 19.8595C101.092 19.8223 101.258 19.7957 101.434 19.7797L101.586 20.4146L100.969 20.7619Z" fill="#703232"/>
<path d="M104.792 22.8502C104.658 22.8502 104.552 22.8116 104.471 22.7344C104.391 22.6546 104.351 22.5494 104.351 22.419C104.351 22.2859 104.391 22.1807 104.471 22.1035C104.552 22.0263 104.658 21.9877 104.792 21.9877C104.926 21.9877 105.032 22.0263 105.113 22.1035C105.193 22.1807 105.233 22.2859 105.233 22.419C105.233 22.5494 105.193 22.6546 105.113 22.7344C105.032 22.8116 104.926 22.8502 104.792 22.8502Z" fill="#703232"/>
<path d="M106.347 22.8502C106.213 22.8502 106.106 22.8116 106.026 22.7344C105.946 22.6546 105.906 22.5494 105.906 22.419C105.906 22.2859 105.946 22.1807 106.026 22.1035C106.106 22.0263 106.213 21.9877 106.347 21.9877C106.48 21.9877 106.587 22.0263 106.667 22.1035C106.747 22.1807 106.788 22.2859 106.788 22.419C106.788 22.5494 106.747 22.6546 106.667 22.7344C106.587 22.8116 106.48 22.8502 106.347 22.8502Z" fill="#703232"/>
<path d="M107.902 22.8502C107.768 22.8502 107.661 22.8116 107.581 22.7344C107.501 22.6546 107.461 22.5494 107.461 22.419C107.461 22.2859 107.501 22.1807 107.581 22.1035C107.661 22.0263 107.768 21.9877 107.902 21.9877C108.035 21.9877 108.142 22.0263 108.222 22.1035C108.302 22.1807 108.342 22.2859 108.342 22.419C108.342 22.5494 108.302 22.6546 108.222 22.7344C108.142 22.8116 108.035 22.8502 107.902 22.8502Z" fill="#703232"/>
</g>
</g>
</g>
<g id="Group_11">
<path id="Vector_43" d="M129.282 60.7317H24.748V61.6528H129.282V60.7317Z" fill="#703232"/>
<g id="Group_12">
<path id="Vector_44" d="M48.9443 62.5746H42.6991C42.4188 62.5746 42.1914 62.3481 42.1914 62.0687V60.3162C42.1914 60.0369 42.4188 59.8103 42.6991 59.8103H48.9443C49.2246 59.8103 49.452 60.0369 49.452 60.3162V62.0687C49.452 62.3481 49.2246 62.5746 48.9443 62.5746Z" fill="#703232"/>
<path id="Vector_45" d="M111.352 62.5746H105.107C104.827 62.5746 104.6 62.3481 104.6 62.0687V60.3162C104.6 60.0369 104.827 59.8103 105.107 59.8103H111.352C111.633 59.8103 111.86 60.0369 111.86 60.3162V62.0687C111.86 62.3481 111.633 62.5746 111.352 62.5746Z" fill="#703232"/>
</g>
<g id="Group_13">
<g id="Group_14">
<path id="Vector_46" d="M47.7156 88.6973C53.2033 86.4314 55.8097 80.1613 53.5372 74.6926C51.2647 69.2239 44.9738 66.6275 39.4861 68.8934C33.9984 71.1593 31.392 77.4293 33.6646 82.898C35.9371 88.3667 42.2279 90.9631 47.7156 88.6973Z" fill="#703232"/>
<path id="Vector_47" d="M48.6301 79.6091C49.0808 76.8423 47.1951 74.2353 44.4184 73.7863C41.6417 73.3372 39.0254 75.2162 38.5747 77.983C38.1241 80.7498 40.0098 83.3567 42.7865 83.8057C45.5632 84.2548 48.1795 82.3758 48.6301 79.6091Z" fill="#EFB05E"/>
</g>
<g id="Group_15">
<path id="Vector_48" d="M120.898 81.2766C122.261 75.516 118.68 69.7422 112.9 68.3805C107.119 67.0187 101.328 70.5846 99.9648 76.3452C98.6013 82.1058 102.182 87.8796 107.963 89.2413C113.743 90.6031 119.534 87.0371 120.898 81.2766Z" fill="#703232"/>
<path id="Vector_49" d="M115.392 79.9749C116.038 77.2471 114.343 74.5136 111.605 73.8695C108.868 73.2253 106.125 74.9145 105.478 77.6424C104.832 80.3702 106.527 83.1037 109.264 83.7478C112.002 84.3919 114.745 82.7028 115.392 79.9749Z" fill="#EFB05E"/>
</g>
</g>
<path id="Vector_50" d="M110.79 75.8037L107.061 79.45C106.297 80.1966 105.27 80.6147 104.2 80.6147H79.6471H74.3831H49.8297C48.7597 80.6147 47.7331 80.1966 46.9692 79.45L43.2396 75.8037C42.4762 75.057 41.4491 74.6389 40.3791 74.6389H24.748V130.172C24.748 134.791 28.506 138.535 33.1417 138.535H74.3831H79.6471H121.291C125.704 138.535 129.282 134.971 129.282 130.573V74.6389H113.651C112.581 74.6389 111.554 75.057 110.79 75.8037Z" fill="#7A94CC"/>
<path id="Vector_51" d="M105.053 82.9088H48.9774C47.8514 82.9088 46.7893 82.4762 45.9859 81.6909L42.2563 78.0446C41.523 77.3277 40.5535 76.933 39.5268 76.933H24.748V76.561H39.5268C40.6524 76.561 41.7146 76.9937 42.5183 77.779L46.2479 81.4257C46.9808 82.1421 47.9503 82.5368 48.9774 82.5368H105.053C106.08 82.5368 107.049 82.1418 107.782 81.4257L111.512 77.779C112.315 76.9937 113.378 76.561 114.503 76.561H129.282V76.933H114.503C113.476 76.933 112.507 77.3277 111.774 78.0446L108.044 81.6909C107.241 82.4762 106.178 82.9088 105.053 82.9088Z" fill="#516FA5"/>
<path id="Vector_52" d="M120.65 131.826H33.3807C32.0326 131.826 30.9395 130.737 30.9395 129.393V94.6984C30.9395 93.3551 32.0326 92.2659 33.3807 92.2659H120.65C121.998 92.2659 123.091 93.3551 123.091 94.6984V129.393C123.091 130.737 121.998 131.826 120.65 131.826Z" fill="#5D79B2"/>
<g id="Group_16">
<path id="Vector_53" d="M46.8704 99.3726C46.8704 100.859 45.6608 102.065 44.1686 102.065C42.6764 102.065 41.4668 100.859 41.4668 99.3726C41.4668 97.8857 42.6764 96.6804 44.1686 96.6804C45.6608 96.6804 46.8704 97.8857 46.8704 99.3726Z" fill="#703232"/>
<path id="Vector_54" d="M55.0823 99.3726C55.0823 100.859 53.8727 102.065 52.3805 102.065C50.8883 102.065 49.6787 100.859 49.6787 99.3726C49.6787 97.8857 50.8883 96.6804 52.3805 96.6804C53.8727 96.6804 55.0823 97.8857 55.0823 99.3726Z" fill="#703232"/>
<path id="Vector_55" d="M63.2933 99.3726C63.2933 100.859 62.0837 102.065 60.5915 102.065C59.0992 102.065 57.8896 100.859 57.8896 99.3726C57.8896 97.8857 59.0992 96.6804 60.5915 96.6804C62.0837 96.6804 63.2933 97.8857 63.2933 99.3726Z" fill="#703232"/>
<path id="Vector_56" d="M71.5052 99.3726C71.5052 100.859 70.2956 102.065 68.8034 102.065C67.3112 102.065 66.1016 100.859 66.1016 99.3726C66.1016 97.8857 67.3112 96.6804 68.8034 96.6804C70.2956 96.6804 71.5052 97.8857 71.5052 99.3726Z" fill="#703232"/>
<path id="Vector_57" d="M79.7171 99.3726C79.7171 100.859 78.5075 102.065 77.0153 102.065C75.5231 102.065 74.3135 100.859 74.3135 99.3726C74.3135 97.8857 75.5231 96.6804 77.0153 96.6804C78.5071 96.6804 79.7171 97.8857 79.7171 99.3726Z" fill="#703232"/>
<path id="Vector_58" d="M87.928 99.3726C87.928 100.859 86.7184 102.065 85.2262 102.065C83.734 102.065 82.5244 100.859 82.5244 99.3726C82.5244 97.8857 83.734 96.6804 85.2262 96.6804C86.7184 96.6804 87.928 97.8857 87.928 99.3726Z" fill="#703232"/>
<path id="Vector_59" d="M96.14 99.3726C96.14 100.859 94.9304 102.065 93.4381 102.065C91.9459 102.065 90.7363 100.859 90.7363 99.3726C90.7363 97.8857 91.9459 96.6804 93.4381 96.6804C94.9304 96.6804 96.14 97.8857 96.14 99.3726Z" fill="#703232"/>
<path id="Vector_60" d="M104.351 99.3726C104.351 100.859 103.141 102.065 101.649 102.065C100.157 102.065 98.9473 100.859 98.9473 99.3726C98.9473 97.8857 100.157 96.6804 101.649 96.6804C103.141 96.6804 104.351 97.8857 104.351 99.3726Z" fill="#703232"/>
<path id="Vector_61" d="M112.563 99.3726C112.563 100.859 111.353 102.065 109.861 102.065C108.369 102.065 107.159 100.859 107.159 99.3726C107.159 97.8857 108.369 96.6804 109.861 96.6804C111.353 96.6804 112.563 97.8857 112.563 99.3726Z" fill="#703232"/>
</g>
<g id="Group_17">
<path id="Vector_62" d="M46.8704 117.372C46.8704 118.859 45.6608 120.064 44.1686 120.064C42.6764 120.064 41.4668 118.859 41.4668 117.372C41.4668 115.885 42.6764 114.68 44.1686 114.68C45.6608 114.68 46.8704 115.885 46.8704 117.372Z" fill="#703232"/>
<path id="Vector_63" d="M55.0823 117.372C55.0823 118.859 53.8727 120.064 52.3805 120.064C50.8883 120.064 49.6787 118.859 49.6787 117.372C49.6787 115.885 50.8883 114.68 52.3805 114.68C53.8727 114.68 55.0823 115.885 55.0823 117.372Z" fill="#703232"/>
<path id="Vector_64" d="M63.2933 117.372C63.2933 118.859 62.0837 120.064 60.5915 120.064C59.0992 120.064 57.8896 118.859 57.8896 117.372C57.8896 115.885 59.0992 114.68 60.5915 114.68C62.0837 114.68 63.2933 115.885 63.2933 117.372Z" fill="#703232"/>
<path id="Vector_65" d="M71.5052 117.372C71.5052 118.859 70.2956 120.064 68.8034 120.064C67.3112 120.064 66.1016 118.859 66.1016 117.372C66.1016 115.885 67.3112 114.68 68.8034 114.68C70.2956 114.68 71.5052 115.885 71.5052 117.372Z" fill="#703232"/>
<path id="Vector_66" d="M79.7171 117.372C79.7171 118.859 78.5075 120.064 77.0153 120.064C75.5231 120.064 74.3135 118.859 74.3135 117.372C74.3135 115.885 75.5231 114.68 77.0153 114.68C78.5071 114.68 79.7171 115.885 79.7171 117.372Z" fill="#703232"/>
<path id="Vector_67" d="M87.928 117.372C87.928 118.859 86.7184 120.064 85.2262 120.064C83.734 120.064 82.5244 118.859 82.5244 117.372C82.5244 115.885 83.734 114.68 85.2262 114.68C86.7184 114.68 87.928 115.885 87.928 117.372Z" fill="#703232"/>
<path id="Vector_68" d="M96.14 117.372C96.14 118.859 94.9304 120.064 93.4381 120.064C91.9459 120.064 90.7363 118.859 90.7363 117.372C90.7363 115.885 91.9459 114.68 93.4381 114.68C94.9304 114.68 96.14 115.885 96.14 117.372Z" fill="#703232"/>
<path id="Vector_69" d="M104.351 117.372C104.351 118.859 103.141 120.064 101.649 120.064C100.157 120.064 98.9473 118.859 98.9473 117.372C98.9473 115.885 100.157 114.68 101.649 114.68C103.141 114.68 104.351 115.885 104.351 117.372Z" fill="#703232"/>
<path id="Vector_70" d="M112.563 117.372C112.563 118.859 111.353 120.064 109.861 120.064C108.369 120.064 107.159 118.859 107.159 117.372C107.159 115.885 108.369 114.68 109.861 114.68C111.353 114.68 112.563 115.885 112.563 117.372Z" fill="#703232"/>
</g>
<g id="Group_18">
<path id="Vector_71" d="M42.765 108.372C42.765 109.859 41.5554 111.064 40.0631 111.064C38.5709 111.064 37.3613 109.859 37.3613 108.372C37.3613 106.885 38.5709 105.68 40.0631 105.68C41.5554 105.68 42.765 106.885 42.765 108.372Z" fill="#703232"/>
<path id="Vector_72" d="M50.9769 108.372C50.9769 109.859 49.7673 111.064 48.2751 111.064C46.7828 111.064 45.5732 109.859 45.5732 108.372C45.5732 106.885 46.7828 105.68 48.2751 105.68C49.7673 105.68 50.9769 106.885 50.9769 108.372Z" fill="#703232"/>
<path id="Vector_73" d="M59.1878 108.372C59.1878 109.859 57.9782 111.064 56.486 111.064C54.9938 111.064 53.7842 109.859 53.7842 108.372C53.7842 106.885 54.9938 105.68 56.486 105.68C57.9782 105.68 59.1878 106.885 59.1878 108.372Z" fill="#703232"/>
<path id="Vector_74" d="M67.3997 108.372C67.3997 109.859 66.1901 111.064 64.6979 111.064C63.2057 111.064 61.9961 109.859 61.9961 108.372C61.9961 106.885 63.2057 105.68 64.6979 105.68C66.1901 105.68 67.3997 106.885 67.3997 108.372Z" fill="#703232"/>
<path id="Vector_75" d="M75.6116 108.372C75.6116 109.859 74.402 111.064 72.9098 111.064C71.4176 111.064 70.208 109.859 70.208 108.372C70.208 106.885 71.4176 105.68 72.9098 105.68C74.402 105.68 75.6116 106.885 75.6116 108.372Z" fill="#703232"/>
<path id="Vector_76" d="M83.8226 108.372C83.8226 109.859 82.613 111.064 81.1208 111.064C79.6285 111.064 78.4189 109.859 78.4189 108.372C78.4189 106.885 79.6285 105.68 81.1208 105.68C82.613 105.68 83.8226 106.885 83.8226 108.372Z" fill="#703232"/>
<path id="Vector_77" d="M92.0345 108.372C92.0345 109.859 90.8249 111.064 89.3327 111.064C87.8405 111.064 86.6309 109.859 86.6309 108.372C86.6309 106.885 87.8405 105.68 89.3327 105.68C90.8249 105.68 92.0345 106.885 92.0345 108.372Z" fill="#703232"/>
<path id="Vector_78" d="M100.245 108.372C100.245 109.859 99.0358 111.064 97.5436 111.064C96.0514 111.064 94.8418 109.859 94.8418 108.372C94.8418 106.885 96.0514 105.68 97.5436 105.68C99.0358 105.68 100.245 106.885 100.245 108.372Z" fill="#703232"/>
<path id="Vector_79" d="M108.457 108.372C108.457 109.859 107.248 111.064 105.756 111.064C104.263 111.064 103.054 109.859 103.054 108.372C103.054 106.885 104.263 105.68 105.756 105.68C107.248 105.68 108.457 106.885 108.457 108.372Z" fill="#703232"/>
<path id="Vector_80" d="M116.669 108.372C116.669 109.859 115.46 111.064 113.967 111.064C112.475 111.064 111.266 109.859 111.266 108.372C111.266 106.885 112.475 105.68 113.967 105.68C115.46 105.68 116.669 106.885 116.669 108.372Z" fill="#703232"/>
</g>
<path id="Vector_81" d="M104.739 128.526H49.2903C48.7291 128.526 48.2744 128.073 48.2744 127.514V124.615C48.2744 124.056 48.7291 123.603 49.2903 123.603H104.739C105.3 123.603 105.755 124.056 105.755 124.615V127.514C105.755 128.073 105.3 128.526 104.739 128.526Z" fill="#703232"/>
<path id="Vector_82" d="M97.3045 80.6148L93.8265 75.9008C93.52 75.4853 93.0332 75.2397 92.5157 75.2397H61.5055C60.9881 75.2397 60.5013 75.4853 60.1948 75.9008L56.7168 80.6148H97.3045Z" fill="#703232"/>
</g>
<path id="Vector_83" d="M149.388 47.8904C147.911 49.0108 145.702 48.5949 145.702 48.5949C145.702 48.5949 145.888 46.3622 147.365 45.2417C148.842 44.1213 151.051 44.5372 151.051 44.5372C151.051 44.5372 150.866 46.7699 149.388 47.8904Z" fill="#BFB685"/>
</g>
</svg>
