<svg width="58" height="107" viewBox="0 0 58 107" fill="none" xmlns="http://www.w3.org/2000/svg">
<g id="Group">
<path id="Vector" d="M0 0.0449219V98.087L34.8843 106.476L57.3235 13.8301L0 0.0449219Z" fill="white"/>
<g id="Group_2">
<path id="Vector_2" d="M2.30828 10.3291L2.22656 10.6665L32.9657 18.0584L33.0474 17.721L2.30828 10.3291Z" fill="#EACFC5"/>
<path id="Vector_3" d="M30.0261 25.398L29.9443 25.7354L44.6534 29.2725L44.7351 28.9351L30.0261 25.398Z" fill="#EACFC5"/>
<path id="Vector_4" d="M0 18.1777V18.5349L20.857 23.5505L20.9388 23.2131L0 18.1777Z" fill="#EACFC5"/>
<path id="Vector_5" d="M11.8708 27.3235L11.7891 27.6609L43.2137 35.2176L43.2954 34.8802L11.8708 27.3235Z" fill="#EACFC5"/>
<path id="Vector_6" d="M0 24.4697V24.8268L4.8328 25.989L4.91456 25.6516L0 24.4697Z" fill="#EACFC5"/>
<path id="Vector_7" d="M32.8679 38.6649L32.7861 39.0027L41.7734 41.1639L41.8552 40.8261L32.8679 38.6649Z" fill="#EACFC5"/>
<path id="Vector_8" d="M0 30.7617V31.1188L25.6054 37.2762L25.6872 36.9388L0 30.7617Z" fill="#EACFC5"/>
<path id="Vector_9" d="M15.4978 40.7797L15.416 41.1174L40.3339 47.1095L40.4157 46.7717L15.4978 40.7797Z" fill="#EACFC5"/>
<path id="Vector_10" d="M0 37.0532V37.4107L9.46923 39.6877L9.55099 39.3499L0 37.0532Z" fill="#EACFC5"/>
<path id="Vector_11" d="M0 43.3452V43.7027L38.8924 53.0555L38.9741 52.7178L0 43.3452Z" fill="#EACFC5"/>
<path id="Vector_12" d="M21.823 54.8825L21.7412 55.2202L37.4533 58.9985L37.5351 58.6608L21.823 54.8825Z" fill="#EACFC5"/>
<path id="Vector_13" d="M0 49.6372V49.9947L13.2082 53.1708L13.2895 52.8331L0 49.6372Z" fill="#EACFC5"/>
<path id="Vector_14" d="M0 55.929V56.2864L36.0125 64.947L36.0942 64.6092L0 55.929Z" fill="#EACFC5"/>
<path id="Vector_15" d="M17.0291 66.3153L16.9473 66.6531L34.5731 70.8916L34.6549 70.5538L17.0291 66.3153Z" fill="#EACFC5"/>
<path id="Vector_16" d="M0 62.2209V62.5784L9.65478 64.9001L9.73654 64.5623L0 62.2209Z" fill="#EACFC5"/>
<path id="Vector_17" d="M10.6267 77.9711L10.5449 78.3088L31.5538 83.3609L31.6356 83.0231L10.6267 77.9711Z" fill="#EACFC5"/>
<path id="Vector_18" d="M0 75.4165V75.774L4.83952 76.938L4.92128 76.5998L0 75.4165Z" fill="#EACFC5"/>
<path id="Vector_19" d="M0 81.709V82.0665L30.1123 89.3075L30.1941 88.9697L0 81.709Z" fill="#EACFC5"/>
<path id="Vector_20" d="M13.0427 91.1381L12.9609 91.4758L28.6734 95.2542L28.7553 94.9165L13.0427 91.1381Z" fill="#EACFC5"/>
<path id="Vector_21" d="M0 88.0005V88.358L3.75461 89.2608L3.83637 88.9231L0 88.0005Z" fill="#EACFC5"/>
</g>
</g>
</svg>
