<svg width="9" height="62" viewBox="0 0 9 62" fill="none" xmlns="http://www.w3.org/2000/svg">
<g id="Group">
<path id="Vector" d="M1.49171 61.0823L1.59844 59.6553L2.66428 59.7345L2.55755 61.1615C2.53627 61.4427 2.29071 61.6537 2.00858 61.6328L1.96454 61.6295C1.68203 61.6086 1.47044 61.3635 1.49171 61.0823Z" fill="#703232"/>
<path id="Vector_2" d="M4.02736 56.8028L7.95508 4.41724L4.57806 4.16584L0.650346 56.5515L4.02736 56.8028Z" fill="#EFB05E"/>
<path id="Vector_3" d="M4.78598 1.37285L4.57617 4.17252L7.95335 4.42363L8.16316 1.62396C8.18929 1.27316 7.92535 0.967743 7.57367 0.941703L5.47105 0.78547C5.119 0.75943 4.81212 1.02243 4.78598 1.37285Z" fill="#E66F55"/>
<path id="Vector_4" d="M1.51788 59.981L0.651367 56.5593L4.02817 56.8104L2.66102 60.0662L1.51788 59.981Z" fill="white"/>
<path id="Vector_5" d="M7.6626 9.01364L8.01855 4.26611L4.52687 4.00618L4.17091 8.75371L7.6626 9.01364Z" fill="white"/>
<path id="Vector_6" d="M4.47116 4.6858L4.44336 5.05713L7.93542 5.31674L7.96323 4.94541L4.47116 4.6858Z" fill="#EACFC5"/>
<path id="Vector_7" d="M4.24362 7.70826L4.21582 8.07959L7.70751 8.33917L7.73531 7.96784L4.24362 7.70826Z" fill="#EACFC5"/>
</g>
</svg>
