<svg width="69" height="72" viewBox="0 0 69 72" fill="none" xmlns="http://www.w3.org/2000/svg">
<g id="Group">
<path id="Vector" d="M14.9362 30.2783C13.7758 30.3505 12.8056 31.1834 12.5625 32.3161L12.4266 32.9496L11.1543 35.5648L11.8248 37.5635C11.8931 37.4523 12.3396 42.4758 12.3396 42.4758L18.2693 46.4521L26.3322 46.6999C26.3322 46.6999 23.7229 36.3728 23.2899 35.6462C22.8568 34.9197 15.3543 28.1389 15.3543 28.1389L14.9362 30.2783Z" fill="#CE7A41"/>
<path id="Vector_2" d="M34.1763 72H56.4475L63.2645 68.5564L60.2294 62.8529L49.0092 30.439C48.1834 28.053 45.9916 26.4017 43.4626 26.26L41.6448 26.1584C39.7834 24.7392 37.4041 24.1753 35.1007 24.6079L32.9809 25.006C31.6944 23.9223 29.9606 23.5276 28.3295 23.9469L24.6974 24.881L18.0278 15.6509C17.4271 14.8195 16.7555 14.0409 16.0207 13.3244L3.64885 1.25562C2.77824 0.406346 1.3185 0.734454 0.897385 1.87352C-0.186775 4.81009 0.404575 8.10116 2.44409 10.4801L10.4484 19.8166L21.5371 45.6665L17.5186 43.7269L12.4267 32.95C11.2604 30.4814 9.37503 28.4202 7.01631 27.0345C6.30026 26.6137 5.3953 26.6885 4.75877 27.2212C4.12485 27.7517 3.83775 28.5887 4.01359 29.3948L8.08628 48.0555C8.39092 49.4519 9.09988 50.7283 10.1251 51.7275L19.8564 61.2116C20.6852 62.0196 21.6129 62.7204 22.6172 63.2982L32.7005 69.0973L34.1763 72Z" fill="#EA9E6A"/>
<path id="Vector_3" d="M24.8519 24.7835L24.5479 25L29.7465 32.2511L30.0506 32.0346L24.8519 24.7835Z" fill="#CC7133"/>
<path id="Vector_4" d="M33.1216 24.8854L32.8418 25.1311L38.5012 31.5311L38.781 31.2854L33.1216 24.8854Z" fill="#CC7133"/>
<path id="Vector_5" d="M46.6262 31.3973L41.5127 26.2901L41.7767 26.0271L46.8902 31.1347L46.6262 31.3973Z" fill="#CC7133"/>
<path id="Vector_6" d="M10.9838 48.9742L8.94336 50.2166L9.138 50.5339L11.1785 49.2916L10.9838 48.9742Z" fill="#CC7133"/>
<path id="Vector_7" d="M9.87748 48.626L8.49023 49.3323L8.66009 49.6635L10.0473 48.9572L9.87748 48.626Z" fill="#CC7133"/>
<path id="Vector_8" d="M10.862 50.1527L9.66406 51.2124L9.91178 51.4904L11.1097 50.4307L10.862 50.1527Z" fill="#CC7133"/>
<path id="Vector_9" d="M5.11698 4.68427C4.51293 4.68427 3.91037 4.45028 3.46274 3.99123L2.39164 2.8916C2.20535 2.70002 2.11015 2.43813 2.13068 2.17252C2.15159 1.90691 2.28525 1.66288 2.49842 1.50217L3.28839 0.906982L3.51351 1.20347L2.72354 1.79866C2.59548 1.89538 2.51484 2.04157 2.50252 2.20116C2.49057 2.36038 2.54732 2.51774 2.65895 2.63194L3.73004 3.73157C4.43041 4.45065 5.5829 4.51017 6.35196 3.86735L6.59202 4.15305C6.16567 4.50868 5.64077 4.68427 5.11698 4.68427Z" fill="#CC7133"/>
<path id="Vector_10" d="M17.0169 14.363L15.5107 15.584L15.7463 15.8725L17.2524 14.6515L17.0169 14.363Z" fill="#CC7133"/>
<path id="Vector_11" d="M16.3171 13.596L15.3955 14.2576L15.6134 14.559L16.535 13.8974L16.3171 13.596Z" fill="#CC7133"/>
<path id="Vector_12" d="M17.6404 15.151L16.7188 15.8125L16.9367 16.1139L17.8583 15.4524L17.6404 15.151Z" fill="#CC7133"/>
<path id="Vector_13" d="M11.5561 18.5809L10.3301 19.6775L10.5793 19.9542L11.8054 18.8576L11.5561 18.5809Z" fill="#CC7133"/>
<path id="Vector_14" d="M17.3831 43.5968L16.0557 44.927L16.3202 45.1891L17.6477 43.8589L17.3831 43.5968Z" fill="#CC7133"/>
<path id="Vector_15" d="M4.8592 33.1763L4.74048 32.824L5.60811 32.5342C5.80523 32.468 5.96054 32.3278 6.04603 32.1388C6.13152 31.9498 6.13339 31.7411 6.05275 31.5503L5.2303 29.6203C5.07648 29.2606 4.67925 29.0728 4.30293 29.1881L4.02293 29.2725L3.91504 28.9165L4.19504 28.8321C4.75243 28.6632 5.34565 28.94 5.57376 29.4749L6.39621 31.4048C6.5168 31.6879 6.51344 32.0108 6.38688 32.2913C6.26032 32.5718 6.01989 32.7887 5.7272 32.8865L4.8592 33.1763Z" fill="#CC7133"/>
<path id="Vector_16" d="M68.4569 72L63.6641 62.2332C63.2123 61.3251 62.1061 60.9557 61.1963 61.4092L39.9648 72H68.4569Z" fill="#EFB05E"/>
</g>
</svg>
