<svg width="89" height="66" viewBox="0 0 89 66" fill="none" xmlns="http://www.w3.org/2000/svg">
<g id="Group">
<path id="Vector" d="M69.2758 26.4997C70.398 26.8022 71.1813 27.8122 71.1914 28.9702L71.1969 29.6182L71.9175 32.4343L70.8587 34.2586C70.8139 34.1358 69.3661 38.9684 69.3661 38.9684L62.757 41.6799L54.8076 40.3128C54.8076 40.3128 59.4407 30.7164 60.0111 30.0907C60.5816 29.4653 69.2956 24.3198 69.2956 24.3198L69.2758 26.4997Z" fill="#CE7A41"/>
<path id="Vector_2" d="M40.0709 66L44.0655 60.9839L55.1102 57.316C56.2104 56.9507 57.2603 56.4489 58.235 55.8232L69.6766 48.4747C70.8817 47.7006 71.833 46.5913 72.4124 45.284L80.1553 27.8153C80.4898 27.0605 80.3771 26.1833 79.8626 25.5372C79.3459 24.888 78.4746 24.6343 77.6883 24.9033C75.0989 25.7897 72.8368 27.4329 71.1979 29.6184L64.0419 39.1602L59.7149 40.2579L75.7768 17.1467L85.4966 9.59771C87.9733 7.6741 89.2146 4.5679 88.7427 1.47435C88.5598 0.273905 87.1952 -0.338781 86.1716 0.319659L71.6235 9.67323C70.7596 10.2286 69.945 10.8573 69.1894 11.5518L60.7987 19.263L57.4279 17.6229C55.914 16.8863 54.1362 16.9269 52.6578 17.7315L50.6608 16.9183C48.491 16.0348 46.0468 16.1118 43.9375 17.1307L42.1362 16.8673C39.63 16.5009 37.1503 17.6813 35.8615 19.8537L18.3503 49.3697L14.2295 54.3512L28.9567 66H40.0709Z" fill="#EA9E6A"/>
<path id="Vector_3" d="M60.6703 19.1231L54.1152 25.1843L54.3689 25.4567L60.924 19.3955L60.6703 19.1231Z" fill="#CC7133"/>
<path id="Vector_4" d="M52.5443 17.5845L45.7139 22.7263L45.9391 23.0234L52.7696 17.8816L52.5443 17.5845Z" fill="#CC7133"/>
<path id="Vector_5" d="M43.8335 16.979L37.7979 20.9644L38.0043 21.2748L44.0399 17.2894L43.8335 16.979Z" fill="#CC7133"/>
<path id="Vector_6" d="M69.3774 45.6023L69.123 45.874L70.872 47.4997L71.1263 47.228L69.3774 45.6023Z" fill="#CC7133"/>
<path id="Vector_7" d="M70.5485 45.4806L70.3154 45.771L71.5314 46.7402L71.7645 46.4499L70.5485 45.4806Z" fill="#CC7133"/>
<path id="Vector_8" d="M69.2555 46.7924L68.957 47.0154L69.9184 48.2932L70.2168 48.0702L69.2555 46.7924Z" fill="#CC7133"/>
<path id="Vector_9" d="M84.511 3.43265C83.8293 3.43265 83.1551 3.1343 82.7041 2.57035L82.9964 2.3386C83.6218 3.12128 84.7615 3.29426 85.593 2.72957L86.863 1.86615C86.9956 1.77612 87.0833 1.63328 87.1031 1.47444C87.1233 1.31597 87.074 1.15675 86.9683 1.0366L86.3139 0.29557L86.5939 0.0500488L87.2483 0.791074C87.4249 0.990466 87.507 1.25645 87.4738 1.52057C87.4402 1.78506 87.295 2.02314 87.074 2.17343L85.8035 3.03683C85.4104 3.30356 84.959 3.43265 84.511 3.43265Z" fill="#CC7133"/>
<path id="Vector_10" d="M70.4311 10.495L70.1426 10.73L71.3713 12.2277L71.6599 11.9927L70.4311 10.495Z" fill="#CC7133"/>
<path id="Vector_11" d="M71.2857 9.86491L71.0117 10.1167L71.782 10.9489L72.056 10.6971L71.2857 9.86491Z" fill="#CC7133"/>
<path id="Vector_12" d="M69.6763 11.1269L69.4023 11.3787L70.1729 12.2111L70.4469 11.9593L69.6763 11.1269Z" fill="#CC7133"/>
<path id="Vector_13" d="M74.9413 15.7106L74.6416 15.9319L75.623 17.2514L75.9227 17.0301L74.9413 15.7106Z" fill="#CC7133"/>
<path id="Vector_14" d="M64.2005 39.054L63.8887 39.2581L64.9223 40.8265L65.2341 40.6225L64.2005 39.054Z" fill="#CC7133"/>
<path id="Vector_15" d="M78.565 31.3504L77.7731 30.8932C77.5062 30.7388 77.3143 30.4784 77.2468 30.1782C77.1788 29.878 77.2404 29.5611 77.4155 29.3077L78.6094 27.5809C78.9406 27.1029 79.5764 26.95 80.0901 27.2268L80.3469 27.3652L80.1696 27.6922L79.9123 27.5538C79.5666 27.3689 79.1396 27.4701 78.917 27.7922L77.7231 29.5194C77.6051 29.6898 77.5652 29.8948 77.6107 30.0971C77.6563 30.2991 77.7806 30.4676 77.9606 30.5714L78.7524 31.0286L78.565 31.3504Z" fill="#CC7133"/>
<path id="Vector_16" d="M40.9918 66.0001L17.6928 47.7621C16.8928 47.136 15.7343 47.277 15.1094 48.0764L0.624023 66.0001H40.9918Z" fill="#EFB05E"/>
</g>
</svg>
