<svg width="61" height="79" viewBox="0 0 61 79" fill="none" xmlns="http://www.w3.org/2000/svg">
<g id="Group">
<path id="Vector" d="M60.9997 0H22.3276L0.30957 54.6725L60.9997 78.9399V0Z" fill="white"/>
<g id="Group_2">
<path id="Vector_2" d="M25.0922 53.9682L24.9531 54.3135L54.3775 66.0778L54.5165 65.7326L25.0922 53.9682Z" fill="#EACFC5"/>
<path id="Vector_3" d="M15.1234 41.1574L14.9844 41.5027L29.0636 47.1339L29.2026 46.7887L15.1234 41.1574Z" fill="#EACFC5"/>
<path id="Vector_4" d="M61 59.5092L37.9049 50.2747L37.7656 50.6199L61 59.9102V59.5092Z" fill="#EACFC5"/>
<path id="Vector_5" d="M17.4154 35.4665L17.2764 35.8118L47.3573 47.8386L47.4963 47.4934L17.4154 35.4665Z" fill="#EACFC5"/>
<path id="Vector_6" d="M61 52.9016L54.1568 50.1655L54.0176 50.5107L61 53.3026V52.9016Z" fill="#EACFC5"/>
<path id="Vector_7" d="M19.7054 29.7744L19.5664 30.1196L28.1694 33.5593L28.3085 33.214L19.7054 29.7744Z" fill="#EACFC5"/>
<path id="Vector_8" d="M35.182 35.9621L35.043 36.3074L60.1719 46.3543L60.3109 46.0091L35.182 35.9621Z" fill="#EACFC5"/>
<path id="Vector_9" d="M21.9994 24.0839L21.8604 24.4292L45.7128 33.9658L45.8518 33.6205L21.9994 24.0839Z" fill="#EACFC5"/>
<path id="Vector_10" d="M60.9994 39.6863L51.5455 35.906L51.4062 36.2512L60.9994 40.0869V39.6863Z" fill="#EACFC5"/>
<path id="Vector_11" d="M61.0001 33.0785L24.2955 18.4023L24.1562 18.7472L61.0001 33.4795V33.0785Z" fill="#EACFC5"/>
<path id="Vector_12" d="M26.5824 12.7016L26.4434 13.0469L41.4838 19.0603L41.6229 18.7151L26.5824 12.7016Z" fill="#EACFC5"/>
<path id="Vector_13" d="M60.9998 26.4711L49.7945 21.9907L49.6553 22.3356L60.9998 26.8717V26.4711Z" fill="#EACFC5"/>
<path id="Vector_14" d="M61 19.8632L28.8795 7.01953L28.7402 7.36475L61 20.2642V19.8632Z" fill="#EACFC5"/>
<path id="Vector_15" d="M31.1654 1.3193L31.0264 1.66455L47.8984 8.41026L48.0374 8.06501L31.1654 1.3193Z" fill="#EACFC5"/>
<path id="Vector_16" d="M61.0001 13.2555L55.023 10.8657L54.8838 11.2106L61.0001 13.6565V13.2555Z" fill="#EACFC5"/>
</g>
</g>
</svg>
