<svg width="69" height="69" viewBox="0 0 69 69" fill="none" xmlns="http://www.w3.org/2000/svg">
<g id="Group">
<path id="Vector" d="M51.5267 51.7017C60.96 42.2986 60.96 27.053 51.5267 17.6498C42.0934 8.24668 26.799 8.24668 17.3657 17.6498C7.93236 27.053 7.93236 42.2986 17.3657 51.7017C26.799 61.1049 42.0934 61.1049 51.5267 51.7017Z" fill="white"/>
<path id="Vector_2" d="M42.3378 56.4564C54.4258 52.1653 60.7339 38.9224 56.4274 26.8777C52.1209 14.8329 38.8306 8.5473 26.7426 12.8384C14.6547 17.1295 8.34657 30.3724 12.6531 42.4171C16.9595 54.4619 30.2499 60.7475 42.3378 56.4564Z" fill="#FFEFEB"/>
<path id="Vector_3" d="M9.34031 40.8569L18.1495 37.8857L19.5446 41.9926L10.7355 44.9638C9.86447 45.2577 8.91956 44.7923 8.625 43.9244L8.29721 42.9598C8.00265 42.0923 8.46969 41.1508 9.34031 40.8569Z" fill="white"/>
<path id="Vector_4" d="M50.2628 42.4618C54.578 33.7624 50.9985 23.2244 42.2679 18.9247C33.5372 14.6249 22.9615 18.1916 18.6463 26.891C14.3311 35.5905 17.9106 46.1285 26.6412 50.4282C35.3719 54.728 45.9476 51.1613 50.2628 42.4618Z" fill="white"/>
<path id="Vector_5" d="M18.4053 42.4007C18.0884 41.7456 17.8085 41.0619 17.5734 40.3688C17.3379 39.6762 17.1439 38.9634 16.9961 38.2507L17.3614 38.1755C17.5066 38.873 17.6966 39.5709 17.9272 40.2498C18.1578 40.9287 18.4321 41.5983 18.7419 42.2396L18.4053 42.4007Z" fill="#EACFC5"/>
<path id="Vector_6" d="M43.0588 47.7284C50.2947 42.9924 52.3077 33.3082 47.5548 26.0982C42.8019 18.8883 33.083 16.8827 25.847 21.6188C18.611 26.3548 16.5981 36.0389 21.351 43.2489C26.1039 50.4589 35.8228 52.4644 43.0588 47.7284Z" fill="#EACFC5"/>
<path id="Vector_7" d="M42.4622 38.62C44.648 34.2135 42.8349 28.8758 38.4126 26.6979C33.9904 24.52 28.6336 26.3266 26.4478 30.7331C24.2621 35.1395 26.0752 40.4772 30.4974 42.6551C34.9197 44.8331 40.2765 43.0265 42.4622 38.62Z" fill="#D3AFA5"/>
</g>
</svg>
