<svg width="50" height="49" viewBox="0 0 50 49" fill="none" xmlns="http://www.w3.org/2000/svg">
<g id="Group">
<path id="Vector" d="M25.1564 48.1841C38.4997 48.1841 49.3166 37.4058 49.3166 24.1101C49.3166 10.8144 38.4997 0.0361328 25.1564 0.0361328C11.813 0.0361328 0.996094 10.8144 0.996094 24.1101C0.996094 37.4058 11.813 48.1841 25.1564 48.1841Z" fill="white"/>
<path id="Vector_2" d="M25.0912 47.1964C37.9234 47.1964 48.326 36.831 48.326 24.0446C48.326 11.2582 37.9234 0.892822 25.0912 0.892822C12.259 0.892822 1.85645 11.2582 1.85645 24.0446C1.85645 36.831 12.259 47.1964 25.0912 47.1964Z" fill="#FFEFEB"/>
<path id="Vector_3" d="M41.8448 43.8041L35.2686 37.2513L38.3456 34.1853L44.9218 40.7381C45.5718 41.3857 45.5718 42.4363 44.9218 43.0839L44.1991 43.8041C43.5487 44.4518 42.4948 44.4518 41.8448 43.8041Z" fill="white"/>
<path id="Vector_4" d="M25.1567 41.6804C34.8953 41.6804 42.79 33.8139 42.79 24.1101C42.79 14.4063 34.8953 6.53979 25.1567 6.53979C15.4181 6.53979 7.52344 14.4063 7.52344 24.1101C7.52344 33.8139 15.4181 41.6804 25.1567 41.6804Z" fill="white"/>
<path id="Vector_5" d="M36.1075 38.1199L35.8779 37.8264C36.4409 37.3882 36.9845 36.909 37.493 36.4024C38.0022 35.895 38.483 35.3533 38.9221 34.7927L39.2166 35.0215C38.7683 35.594 38.277 36.1468 37.7569 36.6654C37.2376 37.1832 36.6825 37.6724 36.1075 38.1199Z" fill="#EACFC5"/>
<path id="Vector_6" d="M25.156 39.7296C33.8133 39.7296 40.8315 32.7365 40.8315 24.11C40.8315 15.4836 33.8133 8.49048 25.156 8.49048C16.4986 8.49048 9.48047 15.4836 9.48047 24.11C9.48047 32.7365 16.4986 39.7296 25.156 39.7296Z" fill="#EACFC5"/>
<path id="Vector_7" d="M25.1561 36.4835C32.0143 36.4835 37.5739 30.9437 37.5739 24.11C37.5739 17.2764 32.0143 11.7366 25.1561 11.7366C18.2979 11.7366 12.7383 17.2764 12.7383 24.11C12.7383 30.9437 18.2979 36.4835 25.1561 36.4835Z" fill="#703232"/>
<g id="Group_2">
<path id="Vector_8" d="M16.3764 32.8596C21.2256 37.6915 29.0884 37.6919 33.9376 32.8596C35.3794 31.4229 36.3826 29.7177 36.9668 27.9079C35.2749 26.5475 32.7329 26.5486 31.0555 27.9823C30.8968 28.1177 30.7504 28.2613 30.6164 28.412C30.1154 28.974 29.3019 29.0708 28.6471 28.6977C27.7772 28.2018 26.8062 27.9496 25.8325 27.9395C25.0997 27.9317 24.4419 27.5013 24.2119 26.8079C24.0301 26.2599 23.721 25.7455 23.2834 25.3095C22.3497 24.3791 21.0554 24.0276 19.8488 24.2545C18.9957 24.4152 18.1254 24.2054 17.4919 23.6135C16.9226 23.0816 16.2125 22.6374 15.321 22.3361C14.5456 22.0738 13.7313 21.9671 12.929 22.0069C12.2693 25.8321 13.4121 29.9059 16.3764 32.8596Z" fill="#894C4C"/>
</g>
<path id="Vector_9" d="M15.4434 24.5904C15.1709 24.862 14.7291 24.862 14.4563 24.5904C14.1838 24.3189 14.1838 23.8784 14.4563 23.6065C14.7287 23.3349 15.1706 23.3349 15.4434 23.6065C15.7158 23.8784 15.7158 24.3189 15.4434 24.5904Z" fill="#703232"/>
<path id="Vector_10" d="M18.7725 32.7587C18.5 33.0302 18.0582 33.0302 17.7854 32.7587C17.5129 32.4871 17.5129 32.0466 17.7854 31.7747C18.0578 31.5032 18.4997 31.5032 18.7725 31.7747C19.0453 32.0463 19.0453 32.4867 18.7725 32.7587Z" fill="#703232"/>
<path id="Vector_11" d="M18.1885 29.2054C17.916 29.477 17.4742 29.477 17.2014 29.2054C16.929 28.9339 16.929 28.4934 17.2014 28.2215C17.4738 27.9499 17.9157 27.9499 18.1885 28.2215C18.4609 28.4931 18.4609 28.9335 18.1885 29.2054Z" fill="#703232"/>
<path id="Vector_12" d="M22.1074 26.2845C21.835 26.5561 21.3931 26.5561 21.1203 26.2845C20.8479 26.013 20.8479 25.5725 21.1203 25.3006C21.3928 25.029 21.8346 25.029 22.1074 25.3006C22.3799 25.5725 22.3799 26.013 22.1074 26.2845Z" fill="#703232"/>
<path id="Vector_13" d="M25.7207 35.2228C25.4483 35.4943 25.0064 35.4943 24.7336 35.2228C24.4612 34.9512 24.4612 34.5108 24.7336 34.2388C25.006 33.9673 25.4479 33.9673 25.7207 34.2388C25.9932 34.5104 25.9932 34.9508 25.7207 35.2228Z" fill="#703232"/>
<path id="Vector_14" d="M34.4785 28.6629C34.2061 28.9345 33.7642 28.9345 33.4914 28.6629C33.219 28.3914 33.219 27.9509 33.4914 27.679C33.7639 27.4075 34.2057 27.4075 34.4785 27.679C34.751 27.9506 34.751 28.391 34.4785 28.6629Z" fill="#703232"/>
<path id="Vector_15" d="M21.6603 32.4734C21.3013 32.8312 20.7191 32.8312 20.3601 32.4734C20.0011 32.1155 20.0011 31.5352 20.3601 31.1773C20.7191 30.8195 21.3013 30.8195 21.6603 31.1773C22.0193 31.5352 22.0193 32.1155 21.6603 32.4734Z" fill="#703232"/>
<path id="Vector_16" d="M33.1642 32.8066C32.8052 33.1645 32.223 33.1645 31.864 32.8066C31.505 32.4488 31.505 31.8684 31.864 31.5106C32.223 31.1527 32.8052 31.1527 33.1642 31.5106C33.5232 31.8684 33.5232 32.4488 33.1642 32.8066Z" fill="#703232"/>
<path id="Vector_17" d="M23.0045 29.1894C23.5124 29.1894 23.924 28.779 23.924 28.2728C23.924 27.7666 23.5124 27.3562 23.0045 27.3562C22.4967 27.3562 22.085 27.7666 22.085 28.2728C22.085 28.779 22.4967 29.1894 23.0045 29.1894Z" fill="#703232"/>
<path id="Vector_18" d="M14.8895 26.7172C14.7255 26.8809 14.46 26.8809 14.2959 26.7172C14.1318 26.5535 14.1318 26.2886 14.2959 26.125C14.46 25.9613 14.7255 25.9613 14.8895 26.125C15.0536 26.2883 15.0536 26.5535 14.8895 26.7172Z" fill="#703232"/>
<path id="Vector_19" d="M23.6268 35.2169C23.4627 35.3806 23.1973 35.3806 23.0332 35.2169C22.8691 35.0536 22.8691 34.7884 23.0332 34.6247C23.1973 34.461 23.4627 34.461 23.6268 34.6247C23.7909 34.7884 23.7909 35.0536 23.6268 35.2169Z" fill="#703232"/>
<path id="Vector_20" d="M25.3875 29.3517C25.2235 29.5154 24.958 29.5154 24.7939 29.3517C24.6299 29.188 24.6299 28.9232 24.7939 28.7595C24.958 28.5958 25.2235 28.5958 25.3875 28.7595C25.5512 28.9232 25.5512 29.1884 25.3875 29.3517Z" fill="#703232"/>
<path id="Vector_21" d="M31.5457 30.6019C31.3817 30.7656 31.1162 30.7656 30.9521 30.6019C30.7881 30.4383 30.7881 30.1734 30.9521 30.0097C31.1162 29.846 31.3817 29.846 31.5457 30.0097C31.7098 30.1734 31.7098 30.4383 31.5457 30.6019Z" fill="#703232"/>
<path id="Vector_22" d="M29.8846 33.8327C29.7206 33.9963 29.4551 33.9963 29.291 33.8327C29.127 33.669 29.127 33.4041 29.291 33.2404C29.4551 33.0768 29.7206 33.0768 29.8846 33.2404C30.0483 33.4041 30.0483 33.669 29.8846 33.8327Z" fill="#703232"/>
<path id="Vector_23" d="M27.45 31.9994C27.286 32.1631 27.0205 32.1631 26.8564 31.9994C26.6924 31.8357 26.6924 31.5709 26.8564 31.4072C27.0205 31.2435 27.286 31.2435 27.45 31.4072C27.6141 31.5709 27.6141 31.8357 27.45 31.9994Z" fill="#703232"/>
<path id="Vector_24" d="M32.079 29.0868C31.9149 29.2501 31.6494 29.2501 31.4854 29.0868C31.3213 28.9231 31.3213 28.6582 31.4854 28.4946C31.6494 28.3312 31.9149 28.3312 32.079 28.4946C32.243 28.6582 32.243 28.9235 32.079 29.0868Z" fill="#703232"/>
<path id="Vector_25" d="M19.9217 28.4618C19.7577 28.6255 19.4922 28.6255 19.3281 28.4618C19.1641 28.2985 19.1641 28.0333 19.3281 27.8696C19.4922 27.7059 19.7577 27.7059 19.9217 27.8696C20.0858 28.0333 20.0858 28.2981 19.9217 28.4618Z" fill="#703232"/>
<path id="Vector_26" d="M16.2797 25.8162C16.1712 25.9244 15.9955 25.9244 15.887 25.8162C15.7785 25.7079 15.7785 25.5327 15.887 25.4245C15.9955 25.3162 16.1712 25.3162 16.2797 25.4245C16.3882 25.5327 16.3882 25.7079 16.2797 25.8162Z" fill="#703232"/>
<path id="Vector_27" d="M20.267 25.4351C20.1585 25.5433 19.9829 25.5433 19.8743 25.4351C19.7658 25.3268 19.7658 25.1516 19.8743 25.0433C19.9829 24.9351 20.1585 24.9351 20.267 25.0433C20.3755 25.1516 20.3755 25.3268 20.267 25.4351Z" fill="#703232"/>
<path id="Vector_28" d="M17.9945 25.6414C17.886 25.7496 17.7104 25.7496 17.6019 25.6414C17.4934 25.5331 17.4934 25.3579 17.6019 25.2496C17.7104 25.1414 17.886 25.1414 17.9945 25.2496C18.103 25.3575 18.103 25.5331 17.9945 25.6414Z" fill="#703232"/>
<path id="Vector_29" d="M26.3011 32.6758C26.1926 32.784 26.017 32.784 25.9085 32.6758C25.8 32.5675 25.8 32.3923 25.9085 32.2841C26.017 32.1758 26.1926 32.1758 26.3011 32.2841C26.4097 32.3923 26.4097 32.5675 26.3011 32.6758Z" fill="#703232"/>
<path id="Vector_30" d="M35.8588 28.6631C35.7503 28.7713 35.5746 28.7713 35.4661 28.6631C35.3576 28.5548 35.3576 28.3796 35.4661 28.2714C35.5746 28.1631 35.7503 28.1631 35.8588 28.2714C35.9669 28.3796 35.9669 28.5548 35.8588 28.6631Z" fill="#703232"/>
<path id="Vector_31" d="M29.2523 30.2046C29.1438 30.3128 28.9682 30.3128 28.8597 30.2046C28.7512 30.0963 28.7512 29.9211 28.8597 29.8129C28.9682 29.7046 29.1438 29.7046 29.2523 29.8129C29.3605 29.9208 29.3605 30.0963 29.2523 30.2046Z" fill="#703232"/>
</g>
</svg>
