<svg xmlns="http://www.w3.org/2000/svg" width="32" height="32" viewBox="0 0 32 32" fill="none">
  <g clip-path="url(#clip0_968_1066)">
    <circle cx="16" cy="16" r="16" fill="url(#paint0_linear_968_1066)"/>
    <path d="M18.8784 19.578C19.0335 19.3243 19.3649 19.2443 19.6186 19.3994C19.8724 19.5545 19.9523 19.8859 19.7972 20.1397C19.0715 21.3269 17.5819 22.0783 15.9382 22.0783C14.2945 22.0783 12.8048 21.3269 12.0791 20.1397C11.924 19.8859 12.004 19.5545 12.2577 19.3994C12.5114 19.2443 12.8429 19.3243 12.998 19.578C13.518 20.4287 14.6532 21.0014 15.9382 21.0014C17.2231 21.0014 18.3584 20.4287 18.8784 19.578Z" fill="#1A062E"/>
    <path d="M10.0935 14.6141C10.1367 14.9083 9.93323 15.1819 9.639 15.2251C9.34477 15.2683 9.07124 15.0647 9.02805 14.7705C9.00942 14.6436 9 14.5147 9 14.3846C9 13.0824 9.94713 12 11.1538 12C12.3606 12 13.3077 13.0824 13.3077 14.3846C13.3077 14.5147 13.2983 14.6436 13.2796 14.7705C13.2365 15.0647 12.9629 15.2683 12.6687 15.2251C12.3745 15.1819 12.171 14.9083 12.2141 14.6141C12.2252 14.539 12.2308 14.4623 12.2308 14.3846C12.2308 13.6476 11.7314 13.0769 11.1538 13.0769C10.5763 13.0769 10.0769 13.6476 10.0769 14.3846C10.0769 14.4623 10.0825 14.539 10.0935 14.6141Z" fill="#1A062E"/>
    <path d="M19.785 14.6141C19.8281 14.9083 19.6246 15.1819 19.3304 15.2251C19.0362 15.2683 18.7626 15.0647 18.7195 14.7705C18.7008 14.6436 18.6914 14.5147 18.6914 14.3846C18.6914 13.0824 19.6385 12 20.8453 12C22.052 12 22.9991 13.0824 22.9991 14.3846C22.9991 14.5147 22.9897 14.6436 22.9711 14.7705C22.9279 15.0647 22.6543 15.2683 22.3601 15.2251C22.0659 15.1819 21.8624 14.9083 21.9056 14.6141C21.9166 14.539 21.9222 14.4623 21.9222 14.3846C21.9222 13.6476 21.4228 13.0769 20.8453 13.0769C20.2677 13.0769 19.7683 13.6476 19.7683 14.3846C19.7683 14.4623 19.7739 14.539 19.785 14.6141Z" fill="#1A062E"/>
  </g>
  <defs>
    <linearGradient id="paint0_linear_968_1066" x1="16" y1="0" x2="16" y2="32" gradientUnits="userSpaceOnUse">
      <stop stop-color="#FFE8AC"/>
      <stop offset="1" stop-color="#F0B214"/>
    </linearGradient>
    <clipPath id="clip0_968_1066">
      <rect width="32" height="32" fill="white"/>
    </clipPath>
  </defs>
</svg>