<svg xmlns="http://www.w3.org/2000/svg" width="32" height="32" viewBox="0 0 32 32" fill="none">
  <g clip-path="url(#clip0_968_1050)">
    <circle cx="16" cy="16" r="16" fill="url(#paint0_linear_968_1050)"/>
    <path d="M9.30559 14.2311C9.06373 14.1421 8.93983 13.8738 9.02885 13.6319C9.11788 13.3901 9.38612 13.2662 9.62798 13.3552C9.96554 13.4795 10.368 13.5479 10.7919 13.5479C11.4716 13.5479 12.087 13.3705 12.4519 13.0945C12.6574 12.939 12.9501 12.9796 13.1056 13.1852C13.2611 13.3907 13.2204 13.6834 13.0149 13.8389C12.4754 14.247 11.6628 14.4812 10.7919 14.4812C10.2604 14.4812 9.74881 14.3942 9.30559 14.2311Z" fill="#1A062E"/>
    <path d="M18.986 13.8389C18.7804 13.6834 18.7398 13.3907 18.8953 13.1852C19.0507 12.9796 19.3434 12.939 19.549 13.0945C19.9139 13.3705 20.5293 13.5479 21.209 13.5479C21.6328 13.5479 22.0353 13.4795 22.3729 13.3552C22.6147 13.2662 22.883 13.3901 22.972 13.6319C23.061 13.8738 22.9371 14.1421 22.6953 14.2311C22.252 14.3942 21.7405 14.4812 21.209 14.4812C20.3381 14.4812 19.5255 14.247 18.986 13.8389Z" fill="#1A062E"/>
    <rect x="12" y="20" width="8" height="1" rx="0.5" fill="#1A062E"/>
  </g>
  <defs>
    <linearGradient id="paint0_linear_968_1050" x1="16" y1="0" x2="16" y2="32" gradientUnits="userSpaceOnUse">
      <stop stop-color="#FFE8AC"/>
      <stop offset="1" stop-color="#F0B214"/>
    </linearGradient>
    <clipPath id="clip0_968_1050">
      <rect width="32" height="32" fill="white"/>
    </clipPath>
  </defs>
</svg>