<svg xmlns="http://www.w3.org/2000/svg" width="22" height="22" viewBox="0 0 22 22" fill="none">
  <path d="M6.1875 4.8125C6.1875 4.43281 6.49529 4.125 6.875 4.125H15.125C15.5047 4.125 15.8125 4.43281 15.8125 4.8125C15.8125 5.19219 15.5047 5.5 15.125 5.5H6.875C6.49529 5.5 6.1875 5.19219 6.1875 4.8125Z" fill="#1A062E"/>
  <path d="M6.875 8.25C6.49529 8.25 6.1875 8.55781 6.1875 8.9375C6.1875 9.31719 6.49529 9.625 6.875 9.625H15.125C15.5047 9.625 15.8125 9.31719 15.8125 8.9375C15.8125 8.55781 15.5047 8.25 15.125 8.25H6.875Z" fill="#1A062E"/>
  <path d="M6.1875 13.0625C6.1875 12.6828 6.49529 12.375 6.875 12.375H15.125C15.5047 12.375 15.8125 12.6828 15.8125 13.0625C15.8125 13.4422 15.5047 13.75 15.125 13.75H6.875C6.49529 13.75 6.1875 13.4422 6.1875 13.0625Z" fill="#1A062E"/>
  <path d="M6.875 16.5C6.49529 16.5 6.1875 16.8078 6.1875 17.1875C6.1875 17.5672 6.49529 17.875 6.875 17.875H10.3125C10.6922 17.875 11 17.5672 11 17.1875C11 16.8078 10.6922 16.5 10.3125 16.5H6.875Z" fill="#1A062E"/>
  <path fill-rule="evenodd" clip-rule="evenodd" d="M5.5 0C3.9812 0 2.75 1.23122 2.75 2.75V19.25C2.75 20.7688 3.9812 22 5.5 22H16.5C18.0188 22 19.25 20.7688 19.25 19.25V2.75C19.25 1.23122 18.0188 0 16.5 0H5.5ZM16.5 1.375H5.5C4.74062 1.375 4.125 1.9906 4.125 2.75V19.25C4.125 20.0094 4.74062 20.625 5.5 20.625H16.5C17.2594 20.625 17.875 20.0094 17.875 19.25V2.75C17.875 1.9906 17.2594 1.375 16.5 1.375Z" fill="#1A062E"/>
</svg>